<?xml version="1.0" encoding="UTF-8"?>
<svg width="21px" height="20px" viewBox="0 0 21 20" version="1.1" xmlns="http://www.w3.org/2000/svg" xmlns:xlink="http://www.w3.org/1999/xlink">
    <title>enter</title>
    <g id="Page-1" stroke="none" stroke-width="1" fill="none" fill-rule="evenodd">
        <g id="Keşfet" transform="translate(-755.000000, -899.000000)" fill="#105268" fill-rule="nonzero">
            <g id="enter" transform="translate(755.000000, 899.000000)">
                <path d="M14.2968723,10 L0.703127683,10 C0.31499984,10 0,9.77600097 0,9.5 C0,9.22399903 0.31499984,9 0.703127683,9 L14.2968723,9 C14.6850002,9 15,9.22399903 15,9.5 C15,9.77600097 14.6850002,10 14.2968723,10 Z" id="Path"></path>
                <path d="M10.6815912,14 C10.5069907,14 10.3325566,13.930972 10.1997337,13.791702 C9.9334221,13.5142026 9.9334221,13.0643066 10.1997337,12.7866338 L13.354028,9.5 L10.1997337,6.2131928 C9.9334221,5.93569337 9.9334221,5.48562399 10.1997337,5.20812457 C10.4662117,4.93062514 10.8979694,4.93062514 11.164281,5.20812457 L14.8002663,8.99703232 C15.0665779,9.27453174 15.0665779,9.72442766 14.8002663,10.0019271 L11.164281,13.7906614 C11.0306258,13.930972 10.8561917,14 10.6815912,14 L10.6815912,14 Z" id="Path"></path>
                <path d="M11.1833368,20 C7.12186092,20 3.53622562,17.5109446 2.04677272,13.658094 C1.91114506,13.3090304 2.08059793,12.9126924 2.42424239,12.7745318 C2.76690647,12.6382022 3.15695846,12.8081565 3.29258612,13.1600499 C4.57859757,16.486392 7.67613677,18.6363712 11.1833368,18.6363712 C15.8577516,18.6363712 19.6613715,14.7617145 19.6613715,10 C19.6613715,5.23828546 15.8577516,1.3636288 11.1833368,1.3636288 C7.67613677,1.3636288 4.57859757,3.51360799 3.29258612,6.83995007 C3.15597804,7.19184351 2.76690647,7.36179777 2.42424239,7.22546817 C2.08059793,7.08730756 1.91114506,6.69096961 2.04677272,6.34190595 C3.53622562,2.48905538 7.12186092,0 11.1833368,0 C16.5958601,0 21,4.48639201 21,10 C21,15.513608 16.5958601,20 11.1833368,20 Z" id="Path"></path>
            </g>
        </g>
    </g>
</svg>