<?xml version="1.0" encoding="UTF-8"?>
<svg width="27px" height="30px" viewBox="0 0 27 30" version="1.1" xmlns="http://www.w3.org/2000/svg" xmlns:xlink="http://www.w3.org/1999/xlink">
    <title>compliance</title>
    <g id="Page-1" stroke="none" stroke-width="1" fill="none" fill-rule="evenodd">
        <g id="Kariyer" transform="translate(-211.000000, -1974.000000)" fill="#105268" fill-rule="nonzero">
            <g id="compliance" transform="translate(211.000000, 1974.000000)">
                <path d="M5.46349336,11 L17.5365066,11 C17.7925404,11 18,10.7761333 18,10.5 C18,10.2238667 17.7925404,10 17.5365066,10 L5.46349336,10 C5.20745963,10 5,10.2238667 5,10.5 C5,10.7761333 5.20752143,11 5.46349336,11 Z" id="Path"></path>
                <path d="M6.44317712,14 L10.5567638,14 C10.8016075,14 11,13.7761333 11,13.5 C11,13.2238667 10.8016075,13 10.5567638,13 L6.44323622,13 C6.19839253,13 6,13.2238667 6,13.5 C6,13.7761333 6.19839253,14 6.44317712,14 L6.44317712,14 Z" id="Path"></path>
                <path d="M5.47391119,21 L12.5260888,21 C12.7878774,21 13,20.7761333 13,20.5 C13,20.2238667 12.7878774,20 12.5260888,20 L5.47391119,20 C5.21212265,20 5,20.2238667 5,20.5 C5,20.7761333 5.21218584,21 5.47391119,21 Z" id="Path"></path>
                <path d="M7.44412204,7 L14.555878,7 C14.801211,7 15,6.77613333 15,6.5 C15,6.22386667 14.801211,6 14.555878,6 L7.44412204,6 C7.19878903,6 7,6.22386667 7,6.5 C7,6.77613333 7.19884824,7 7.44412204,7 Z" id="Path"></path>
                <path d="M26.238549,19.728457 L25.4817215,20.4741797 L25.4817215,20.3669531 C25.4817215,19.9630664 25.1482941,19.6345312 24.7383929,19.6345312 L23.8576377,19.6345312 L23.8576377,18.7392187 L24.7383929,18.7392187 C25.1482941,18.7392187 25.4817215,18.4106836 25.4817215,18.0067969 L25.4817215,17.2851562 C25.4817215,17.0424609 25.2820932,16.8457031 25.0357244,16.8457031 C24.7893555,16.8457031 24.5897272,17.0424609 24.5897272,17.2851562 L24.5897272,17.8603125 L18.9147997,17.8603125 L18.9147997,12.2686523 L24.5897272,12.2686523 L24.5897272,13.1083008 L22.1406675,15.5214844 L20.5366833,13.9410352 C20.362447,13.7694141 20.0801011,13.7694141 19.9059243,13.9410352 C19.7317476,14.1126562 19.7317476,14.390918 19.9059243,14.5624805 L21.8252583,16.4537109 C21.9123764,16.5395508 22.0264922,16.5824414 22.1406675,16.5824414 C22.2547833,16.5824414 22.3689586,16.5395508 22.4560767,16.4537109 L24.5897867,14.3513672 L24.5897867,15.234375 C24.5897867,15.4770703 24.789415,15.6738281 25.0357838,15.6738281 C25.2821527,15.6738281 25.481781,15.4770703 25.481781,15.234375 L25.481781,13.4724023 L26.8693674,12.1051758 C27.0435442,11.9335547 27.0435442,11.655293 26.8693674,11.4837305 C26.6951312,11.3121094 26.4127853,11.3121094 26.2386085,11.4837305 L25.481781,12.2294531 L25.481781,12.1222266 C25.481781,11.7183398 25.1483535,11.3898047 24.7384524,11.3898047 L23.8576972,11.3898047 L23.8576972,3.13412109 C23.8576972,2.79486328 23.5776109,2.51888672 23.2333011,2.51888672 L21.3013008,2.51888672 L21.3013008,0.615234375 C21.3013008,0.275976562 21.0212146,0 20.6769048,0 L0.624396045,0 C0.280086226,0 0,0.275976562 0,0.615234375 L0,26.8658789 C0,27.2051367 0.280086226,27.4811133 0.624396045,27.4811133 L2.55639634,27.4811133 L2.55639634,29.3847656 C2.55639634,29.7240234 2.83648257,30 3.18079239,30 L23.2332417,30 C23.5775515,30 23.8576377,29.7240234 23.8576377,29.3847656 L23.8576377,26.9840039 L24.7383929,26.9840039 C25.1482941,26.9840039 25.4817215,26.6554687 25.4817215,26.251582 L25.4817215,21.7171289 L26.869308,20.3499023 C27.0434847,20.1782812 27.0434847,19.9000195 26.869308,19.728457 C26.6951312,19.5568945 26.4127258,19.5568359 26.238549,19.728457 Z M24.5897867,21.3530859 L22.140608,23.7662109 L20.5366238,22.1857617 C20.3623876,22.0141406 20.0800416,22.0141406 19.9058649,22.1857617 C19.7316881,22.3573828 19.7316881,22.6356445 19.9058649,22.807207 L21.8252583,24.6984375 C21.9123764,24.7842773 22.0264922,24.827168 22.1406675,24.827168 C22.2547833,24.827168 22.3689586,24.7842773 22.4560767,24.6984375 L24.5897867,22.5960938 L24.5897867,26.1051563 L22.7767189,26.1051563 C22.5303501,26.1051563 22.3307218,26.3019141 22.3307218,26.5446094 C22.3307218,26.7873047 22.5303501,26.9840625 22.7767189,26.9840625 L22.9657028,26.9840625 L22.9657028,29.1210938 L3.44845016,29.1210938 L3.44845016,3.39779297 L7.5533487,3.39779297 C7.79971754,3.39779297 7.99934587,3.20103516 7.99934587,2.95833984 C7.99934587,2.71564453 7.79971754,2.51888672 7.5533487,2.51888672 L3.18085185,2.51888672 C2.83654204,2.51888672 2.55645581,2.79486328 2.55645581,3.13412109 L2.55645581,26.6021484 L0.891994351,26.6021484 L0.891994351,0.87890625 L20.409247,0.87890625 L20.409247,2.51888672 L9.63466885,2.51888672 C9.38830001,2.51888672 9.18867167,2.71564453 9.18867167,2.95833984 C9.18867167,3.20103516 9.38830001,3.39779297 9.63466885,3.39779297 L22.9657028,3.39779297 L22.9657028,11.3897461 L18.7661934,11.3897461 C18.3562923,11.3897461 18.0228648,11.7182813 18.0228648,12.122168 L18.0228648,12.2706445 L13.2026462,12.2706445 C12.9562774,12.2706445 12.7566491,12.4674023 12.7566491,12.7100977 C12.7566491,12.952793 12.9562774,13.1495508 13.2026462,13.1495508 L18.0228648,13.1495508 L18.0228648,14.8560937 L7.39837954,14.8560937 C7.1520107,14.8560937 6.95238237,15.0528516 6.95238237,15.2955469 C6.95238237,15.5382422 7.1520107,15.735 7.39837954,15.735 L18.0228053,15.735 L18.0228053,17.441543 L7.39837954,17.441543 C7.1520107,17.441543 6.95238237,17.6383008 6.95238237,17.8809961 C6.95238237,18.1236914 7.1520107,18.3204492 7.39837954,18.3204492 L18.0954731,18.3204492 C18.2150004,18.5675391 18.4702892,18.7391602 18.7661339,18.7391602 L22.9656434,18.7391602 L22.9656434,19.6344727 L18.7661339,19.6344727 C18.4807552,19.6344727 18.2327808,19.7939648 18.1082584,20.0270508 L15.7002304,20.0270508 C15.4538616,20.0270508 15.2542333,20.2238086 15.2542333,20.4665039 C15.2542333,20.7091992 15.4538616,20.905957 15.7002304,20.905957 L18.0228648,20.905957 L18.0228648,22.6125 L7.39837954,22.6125 C7.1520107,22.6125 6.95238237,22.8092578 6.95238237,23.0519531 C6.95238237,23.2946484 7.1520107,23.4914062 7.39837954,23.4914062 L18.0228053,23.4914062 L18.0228053,25.1980078 L7.39837954,25.1980078 C7.1520107,25.1980078 6.95238237,25.3947656 6.95238237,25.6374609 C6.95238237,25.8801562 7.1520107,26.0769141 7.39837954,26.0769141 L18.0228053,26.0769141 L18.0228053,26.2514648 C18.0228053,26.6553516 18.3562328,26.9838867 18.7661339,26.9838867 L20.6953988,26.9838867 C20.9417676,26.9838867 21.141396,26.7871289 21.141396,26.5444336 C21.141396,26.3017383 20.9417676,26.1049805 20.6953988,26.1049805 L18.9148591,26.1049805 L18.9148591,20.5133203 L24.5897867,20.5133203 L24.5897867,21.3530859 L24.5897867,21.3530859 Z" id="Shape"></path>
            </g>
        </g>
    </g>
</svg>