<?xml version="1.0" encoding="UTF-8"?>
<svg width="39px" height="44px" viewBox="0 0 39 44" version="1.1" xmlns="http://www.w3.org/2000/svg" xmlns:xlink="http://www.w3.org/1999/xlink">
    <title>position</title>
    <g id="Page-1" stroke="none" stroke-width="1" fill="none" fill-rule="evenodd">
        <g id="Kariyer" transform="translate(-211.000000, -2142.000000)" fill="#105268" fill-rule="nonzero">
            <g id="position" transform="translate(230.500000, 2164.000000) scale(-1, 1) translate(-230.500000, -2164.000000) translate(211.000000, 2142.000000)">
                <path d="M31.2215423,26.9170583 C31.4126608,27.0428044 31.6712486,27.0247071 31.8401222,26.868643 C31.9927632,26.7276043 32.0418621,26.5010876 31.9623686,26.3093631 C31.8860147,26.1252514 31.7038476,26.0026439 31.5045126,26.0000395 C31.2911492,25.9973016 31.095555,26.1370715 31.0264825,26.3381451 C30.9539363,26.5493025 31.0341647,26.793783 31.2215423,26.9170583 Z" id="Path"></path>
                <path d="M38.3019093,32.4079227 L35.9770811,32.4079227 C35.7580668,30.662302 34.7211695,29.0137951 32.9442029,27.6041007 C32.6416038,27.3639797 32.2025513,27.4157614 31.9637112,27.7195345 C31.724685,28.0233077 31.7761575,28.4641059 32.0786635,28.7041334 C33.0986205,29.5132917 34.2901217,30.7777358 34.5659141,32.4078293 L31.6449165,32.4078293 C31.2592912,32.4078293 30.9468258,32.7216971 30.9468258,33.1088443 C30.9468258,33.4959915 31.2592912,33.8098592 31.6449165,33.8098592 L34.5652625,33.8098592 C34.2614535,35.6095049 32.7934153,37.306522 30.3534487,38.6486385 C27.6299642,40.1467543 24.0462458,41.0095635 20.1980907,41.1028453 L20.1980907,38.6506014 C20.1980907,38.2634542 19.8856253,37.9495864 19.5,37.9495864 C19.1143747,37.9495864 18.8019093,38.2634542 18.8019093,38.6506014 L18.8019093,41.1028453 C14.9537542,41.0095635 11.3699427,40.1466608 8.64655131,38.6486385 C6.20658473,37.306522 4.73854654,35.6095984 4.43473747,33.8098592 L7.35508353,33.8098592 C7.74070883,33.8098592 8.05317422,33.4959915 8.05317422,33.1088443 C8.05317422,32.7216971 7.74070883,32.4078293 7.35508353,32.4078293 L4.43389976,32.4078293 C4.74078043,30.5700484 6.20425776,29.1814779 7.45505012,28.3068916 C9.3407327,26.9882357 11.9486134,26.0031694 14.8628162,25.4969431 L14.8628162,31.1309538 C14.8628162,32.6081326 16.0595298,33.8098592 17.5305465,33.8098592 C18.3098019,33.8098592 19.0119881,33.4725308 19.5000931,32.9357403 C19.9882912,33.4725308 20.6904773,33.8098592 21.4697327,33.8098592 C22.9407494,33.8098592 24.1373699,32.6081326 24.1373699,31.1309538 L24.1373699,25.497317 C25.5921909,25.7485608 26.9662196,26.1160796 28.2296706,26.5955738 C28.3109284,26.6264185 28.394327,26.6409996 28.4763294,26.6409996 C28.7582649,26.6409996 29.0238186,26.468176 29.129463,26.1875831 C29.2658234,25.825392 29.0839475,25.4208597 28.7232673,25.2840215 C27.3080048,24.7469506 25.7675513,24.3416705 24.1373699,24.0751913 L24.1373699,23.4297902 L24.5753986,23.4297902 C25.873568,23.4297902 26.9297327,22.3692012 26.9297327,21.0655938 L26.9297327,14.0215148 C26.9297327,11.4577628 25.1581647,9.30293619 22.7800955,8.72343047 C23.8120597,7.80921346 24.4649141,6.47279849 24.4649141,4.98543163 C24.4649141,2.23651821 22.2377255,0 19.5000931,0 C16.7625537,0 14.5353652,2.23651821 14.5353652,4.9855251 C14.5353652,6.47289196 15.1881265,7.80930693 16.2200907,8.72352394 C13.8419284,9.30302966 12.0703604,11.4579497 12.0703604,14.0216083 L12.0703604,21.0656872 C12.0703604,22.3692947 13.1265251,23.4298836 14.4246945,23.4298836 L14.8627232,23.4298836 L14.8627232,24.0741631 C11.6544845,24.6017003 8.7588043,25.6865911 6.65708592,27.1563858 C4.5401957,28.6366491 3.27302148,30.4794773 3.02450119,32.4079227 L0.698090692,32.4079227 C0.312465394,32.4079227 0,32.7217905 0,33.1089377 C0,33.4960849 0.312465394,33.8099527 0.698090692,33.8099527 L3.02254654,33.8099527 C3.31304535,36.132836 5.04570644,38.2666321 7.97563962,39.8783123 C10.8991504,41.4864407 14.7209642,42.4103784 18.8019093,42.5051556 L18.8019093,43.298985 C18.8019093,43.6861322 19.1143747,44 19.5,44 C19.8856253,44 20.1980907,43.6861322 20.1980907,43.298985 L20.1980907,42.5051556 C24.2790358,42.4103784 28.1006635,41.4864407 31.0242673,39.8783123 C33.9542936,38.2666321 35.6869547,36.132836 35.9774535,33.8099527 L38.3019093,33.8099527 C38.6875346,33.8099527 39,33.4960849 39,33.1089377 C39,32.7217905 38.6875346,32.4079227 38.3019093,32.4079227 Z M15.9315465,4.9855251 C15.9315465,3.00959753 17.5324081,1.40202997 19.5000931,1.40202997 C21.4678711,1.40202997 23.0687327,3.00959753 23.0687327,4.9855251 C23.0687327,6.96145267 21.4678711,8.56902024 19.5000931,8.56902024 C17.5324081,8.5691137 15.9315465,6.96154614 15.9315465,4.9855251 Z M13.4666348,21.0656872 L13.4666348,14.0216083 C13.4666348,11.788081 15.2760859,9.97105021 17.5002959,9.97105021 L21.4999833,9.97105021 C23.7241933,9.97105021 25.5336444,11.788081 25.5336444,14.0216083 L25.5336444,21.0656872 C25.5336444,21.5962154 25.1038067,22.0278537 24.5754916,22.0278537 L24.137463,22.0278537 L24.137463,14.2553734 C24.137463,13.8682262 23.8249976,13.5543584 23.4393723,13.5543584 C23.053747,13.5543584 22.7412816,13.8682262 22.7412816,14.2553734 L22.7412816,22.7288686 L22.7412816,31.1310473 C22.7412816,31.8351468 22.170895,32.4079227 21.4698258,32.4079227 C20.7686635,32.4079227 20.1982768,31.8351468 20.1982768,31.1310473 L20.1982768,22.7288686 C20.1982768,22.3417214 19.8858115,22.0278537 19.5001862,22.0278537 C19.1145609,22.0278537 18.8020955,22.3417214 18.8020955,22.7288686 L18.8020955,31.1310473 C18.8020955,31.8351468 18.2317088,32.4079227 17.5306396,32.4079227 C16.8294773,32.4079227 16.2590907,31.8351468 16.2590907,31.1310473 L16.2590907,14.2553734 C16.2590907,13.8682262 15.9466253,13.5543584 15.561,13.5543584 C15.1753747,13.5543584 14.8629093,13.8682262 14.8629093,14.2553734 L14.8629093,22.0278537 L14.4248807,22.0278537 C13.8964726,22.0278537 13.4666348,21.5963088 13.4666348,21.0656872 Z" id="Shape"></path>
            </g>
        </g>
    </g>
</svg>