<svg xmlns="http://www.w3.org/2000/svg" width="87.981" height="88" viewBox="0 0 87.981 88">
  <g id="Page-1" transform="translate(-8.519 1)">
    <g id="Mimarlara-Özel">
      <g id="noun_activity_74416" data-name="noun activity 74416">
        <path id="Shape" d="M52.5,86A43,43,0,0,1,21.55,13.2a3.3,3.3,0,1,1,4.91,4.24l.09.08a36.37,36.37,0,1,0,26-10.9A3.31,3.31,0,1,1,52.5,0h0a43,43,0,0,1,0,86Zm0-52.92h0a3.31,3.31,0,1,1,0-6.62h0a16.54,16.54,0,0,1,0,33.08h0a3.31,3.31,0,1,1,0-6.62h0a9.92,9.92,0,1,0,0-19.84ZM75.66,43A23.15,23.15,0,0,0,52.5,19.85h0a3.31,3.31,0,1,1,0-6.62h0A29.77,29.77,0,1,1,22.73,43h0a3.31,3.31,0,1,1,6.61,0h0a23.16,23.16,0,0,0,46.32,0Z" fill="#105268" stroke="#eee" stroke-width="2"/>
      </g>
    </g>
  </g>
</svg>
