<svg xmlns="http://www.w3.org/2000/svg" xmlns:xlink="http://www.w3.org/1999/xlink" width="34.258" height="34.25" viewBox="0 0 34.258 34.25">
  <defs>
    <clipPath id="clip-path">
      <path id="Path_308" data-name="Path 308" d="M775.075-33.532a.681.681,0,0,0-.587-.332h-3.269l-1.639-2.8a.681.681,0,0,0-.588-.334h-3.665a.68.68,0,0,0-.587.333L763.233-34.1l-1.184-.611A1.972,1.972,0,0,0,762.07-35a2.02,2.02,0,0,0-2.035-2A2.02,2.02,0,0,0,758-35a2.02,2.02,0,0,0,2.035,2,2.047,2.047,0,0,0,1.382-.534l1.59.821,1.734,2.916a.681.681,0,0,0,.586.33h3.266l1.435,2.5-1.365,2.02a2.067,2.067,0,0,0-.487-.058,2.02,2.02,0,0,0-2.035,2,2.02,2.02,0,0,0,2.035,2,2.056,2.056,0,0,0,.878-.195l1.356,1.332a1.963,1.963,0,0,0-.2.862,2.02,2.02,0,0,0,2.035,2,2.02,2.02,0,0,0,2.035-2,2.02,2.02,0,0,0-2.035-2,2.055,2.055,0,0,0-.878.195l-1.356-1.332a1.962,1.962,0,0,0,.2-.862,1.967,1.967,0,0,0-.415-1.208l1.391-2.059h3.3a.681.681,0,0,0,.589-.336l1.833-3.158a.657.657,0,0,0,0-.665Zm-15.04-.8a.673.673,0,0,1-.678-.667.673.673,0,0,1,.678-.667.673.673,0,0,1,.678.667A.673.673,0,0,1,760.035-34.333Zm4.244,1.117,1.44-2.451H768.6l1.441,2.463L768.6-30.8h-2.888ZM767.5-23a.673.673,0,0,1,.678-.667.673.673,0,0,1,.678.667.673.673,0,0,1-.678.667A.673.673,0,0,1,767.5-23Zm5.427,4a.673.673,0,0,1-.678.667.673.673,0,0,1-.678-.667.673.673,0,0,1,.678-.667A.673.673,0,0,1,772.924-19Zm1.17-8.6H771.22l-1.446-2.524,1.438-2.409H774.1l1.441,2.445Z" fill="none"/>
    </clipPath>
    <clipPath id="clip-path-2">
      <path id="Path_307" data-name="Path 307" d="M-270,3969H1170V-242H-270Z" fill="none"/>
    </clipPath>
    <clipPath id="clip-path-3">
      <path id="Path_313" data-name="Path 313" d="M756-23a.68.68,0,0,0-.549.27A7.174,7.174,0,0,0,754-19.875,1.943,1.943,0,0,0,756-18a1.943,1.943,0,0,0,2-1.875,7.174,7.174,0,0,0-1.451-2.855A.68.68,0,0,0,756-23Zm0,3.75a.647.647,0,0,1-.667-.624A4.532,4.532,0,0,1,756-21.217a4.528,4.528,0,0,1,.667,1.342A.648.648,0,0,1,756-19.25Z" fill="none"/>
    </clipPath>
    <clipPath id="clip-path-5">
      <path id="Path_318" data-name="Path 318" d="M755.5-3a.5.5,0,0,0,.5-.5.5.5,0,0,0-.5-.5.5.5,0,0,0-.5.5A.5.5,0,0,0,755.5-3Z" fill="none"/>
    </clipPath>
    <clipPath id="clip-path-7">
      <path id="Path_323" data-name="Path 323" d="M760.917-21.3v-5.753h.674a.666.666,0,0,0,.674-.657v-2.629a.666.666,0,0,0-.674-.657H750.409a.666.666,0,0,0-.674.657v2.629a.666.666,0,0,0,.674.657h.674V-21.3L743.32-6.872A2.584,2.584,0,0,0,743-5.629,2.665,2.665,0,0,0,745.694-3h7.275a.666.666,0,0,0,.674-.657.666.666,0,0,0-.674-.657h-7.275a1.333,1.333,0,0,1-1.347-1.315,1.273,1.273,0,0,1,.16-.623l4.12-7.659h14.744l4.12,7.659a1.273,1.273,0,0,1,.16.623,1.333,1.333,0,0,1-1.347,1.315h-7.274a.666.666,0,0,0-.674.657.666.666,0,0,0,.674.657h7.275A2.665,2.665,0,0,0,769-5.629a2.584,2.584,0,0,0-.32-1.243Zm-9.834-8.383h9.834v1.315h-9.834Zm-1.748,14.46,3.018-5.61a.646.646,0,0,0,.077-.305v-5.915h7.14v5.915a.644.644,0,0,0,.077.305l3.018,5.61Z" fill="none"/>
    </clipPath>
  </defs>
  <g id="Group_265" data-name="Group 265" transform="translate(-1099.875 -768.875)">
    <g id="Group_221" data-name="Group 221" transform="translate(357 806)" clip-path="url(#clip-path)">
      <g id="Group_220" data-name="Group 220" clip-path="url(#clip-path-2)">
        <path id="Path_306" data-name="Path 306" d="M757-38h21.031v22H757Z"/>
      </g>
    </g>
    <g id="Group_222" data-name="Group 222" transform="translate(1115 769)">
      <path id="Path_309" data-name="Path 309" d="M17.075,3.468a.681.681,0,0,0-.587-.332H13.219L11.58.334A.681.681,0,0,0,10.992,0H7.327A.681.681,0,0,0,6.74.333L5.233,2.9,4.049,2.286A1.976,1.976,0,0,0,4.07,2,2.02,2.02,0,0,0,2.035,0,2.02,2.02,0,0,0,0,2,2.02,2.02,0,0,0,2.035,4a2.047,2.047,0,0,0,1.382-.534l1.59.821L6.741,7.2a.681.681,0,0,0,.586.33h3.266l1.435,2.5-1.365,2.02A2.067,2.067,0,0,0,10.176,12a2,2,0,1,0,0,4,2.055,2.055,0,0,0,.878-.195l1.356,1.332a1.963,1.963,0,0,0-.2.862,2.035,2.035,0,1,0,2.035-2,2.056,2.056,0,0,0-.878.195l-1.356-1.332a1.971,1.971,0,0,0-.216-2.071l1.391-2.059h3.3a.681.681,0,0,0,.589-.336l1.833-3.158a.657.657,0,0,0,0-.665Zm-15.04-.8A.667.667,0,1,1,2.714,2,.673.673,0,0,1,2.035,2.667ZM6.279,3.784,7.719,1.333H10.6L12.041,3.8,10.6,6.2H7.716ZM9.5,14a.678.678,0,1,1,.678.667A.673.673,0,0,1,9.5,14Zm5.427,4a.678.678,0,1,1-.678-.667A.673.673,0,0,1,14.924,18Zm1.17-8.6H13.22L11.773,6.876l1.438-2.409H16.1l1.441,2.445Z" fill="none" stroke="#fff" stroke-width="0.25"/>
    </g>
    <g id="Group_225" data-name="Group 225" transform="translate(357 806)" clip-path="url(#clip-path-3)">
      <g id="Group_224" data-name="Group 224" clip-path="url(#clip-path-2)">
        <path id="Path_311" data-name="Path 311" d="M753-24h6v7h-6Z"/>
      </g>
    </g>
    <g id="Group_226" data-name="Group 226" transform="translate(1111 783)">
      <path id="Path_314" data-name="Path 314" d="M2,0a.681.681,0,0,0-.549.27A7.174,7.174,0,0,0,0,3.125,1.943,1.943,0,0,0,2,5,1.943,1.943,0,0,0,4,3.125,7.174,7.174,0,0,0,2.549.27.681.681,0,0,0,2,0ZM2,3.75a.647.647,0,0,1-.667-.624A4.532,4.532,0,0,1,2,1.783a4.528,4.528,0,0,1,.667,1.342A.648.648,0,0,1,2,3.75Z" fill="none" stroke="#fff" stroke-width="0.25"/>
    </g>
    <g id="Group_229" data-name="Group 229" transform="translate(357 806)" clip-path="url(#clip-path-5)">
      <g id="Group_228" data-name="Group 228" clip-path="url(#clip-path-2)">
        <path id="Path_316" data-name="Path 316" d="M754-5h3v3h-3Z"/>
      </g>
    </g>
    <g id="Group_230" data-name="Group 230" transform="translate(1112 802)">
      <path id="Path_319" data-name="Path 319" d="M.5,1A.5.5,0,1,0,0,.5.5.5,0,0,0,.5,1Z" fill="none" stroke="#fff" stroke-width="0.25"/>
    </g>
    <g id="Group_233" data-name="Group 233" transform="translate(357 806)" clip-path="url(#clip-path-7)">
      <g id="Group_232" data-name="Group 232" clip-path="url(#clip-path-2)">
        <path id="Path_321" data-name="Path 321" d="M742-32h28V-2H742Z"/>
      </g>
    </g>
    <g id="Group_234" data-name="Group 234" transform="translate(1100 775)">
      <path id="Path_324" data-name="Path 324" d="M17.917,9.7V3.944h.674a.666.666,0,0,0,.674-.657V.657A.666.666,0,0,0,18.591,0H7.409a.666.666,0,0,0-.674.657V3.286a.666.666,0,0,0,.674.657h.674V9.7L.32,24.128A2.584,2.584,0,0,0,0,25.371,2.665,2.665,0,0,0,2.694,28H9.969a.657.657,0,1,0,0-1.315H2.694a1.333,1.333,0,0,1-1.347-1.315,1.274,1.274,0,0,1,.16-.623l4.12-7.659H20.372l4.12,7.659a1.273,1.273,0,0,1,.16.623,1.333,1.333,0,0,1-1.347,1.315H16.031a.657.657,0,1,0,0,1.315h7.275A2.665,2.665,0,0,0,26,25.371a2.584,2.584,0,0,0-.32-1.243ZM8.083,1.315h9.834V2.629H8.083ZM6.335,15.775l3.018-5.61a.645.645,0,0,0,.077-.305V3.944h7.14V9.859a.644.644,0,0,0,.077.305l3.018,5.61Z" fill="none" stroke="#fff" stroke-width="0.25"/>
    </g>
  </g>
</svg>
