<svg xmlns="http://www.w3.org/2000/svg" xmlns:xlink="http://www.w3.org/1999/xlink" width="42" height="36" viewBox="0 0 42 36">
  <defs>
    <clipPath id="clip-path">
      <path id="Path_333" data-name="Path 333" d="M901.255-8.5a3.854,3.854,0,0,1-3.08-1.091,3.532,3.532,0,0,1-.655-2.547.751.751,0,0,0-.616-.849.745.745,0,0,0-.853.6,5.034,5.034,0,0,0,.98,3.754A5.232,5.232,0,0,0,901.255-7,.748.748,0,0,0,902-7.752.748.748,0,0,0,901.255-8.5Z" fill="none"/>
    </clipPath>
    <clipPath id="clip-path-2">
      <path id="Path_332" data-name="Path 332" d="M-270,3969H1170V-242H-270Z" fill="none"/>
    </clipPath>
    <clipPath id="clip-path-3">
      <path id="Path_336" data-name="Path 336" d="M903.333-9h-.667c-.368,0-.667.224-.667.5s.3.5.667.5h.667c.368,0,.667-.224.667-.5S903.7-9,903.333-9Z" fill="none"/>
    </clipPath>
    <clipPath id="clip-path-5">
      <path id="Path_339" data-name="Path 339" d="M916.745-19.5a3.86,3.86,0,0,1,3.081,1.088,3.519,3.519,0,0,1,.655,2.541.749.749,0,0,0,.613.859.684.684,0,0,0,.122.011.746.746,0,0,0,.734-.626,5.016,5.016,0,0,0-.98-3.746A5.238,5.238,0,0,0,916.745-21a.748.748,0,0,0-.745.75A.748.748,0,0,0,916.745-19.5Z" fill="none"/>
    </clipPath>
    <clipPath id="clip-path-7">
      <path id="Path_342" data-name="Path 342" d="M916-20.5c0-.276-.3-.5-.667-.5h-.667c-.368,0-.667.224-.667.5s.3.5.667.5h.667C915.7-20,916-20.224,916-20.5Z" fill="none"/>
    </clipPath>
    <clipPath id="clip-path-9">
      <path id="Path_345" data-name="Path 345" d="M891.5-23a3.5,3.5,0,0,0,3.5-3.5,3.5,3.5,0,0,0-3.5-3.5,3.5,3.5,0,0,0-3.5,3.5A3.5,3.5,0,0,0,891.5-23Zm0-5.6a2.1,2.1,0,0,1,2.1,2.1,2.1,2.1,0,0,1-2.1,2.1,2.1,2.1,0,0,1-2.1-2.1A2.1,2.1,0,0,1,891.5-28.6Z" fill="none"/>
    </clipPath>
    <clipPath id="clip-path-11">
      <path id="Path_348" data-name="Path 348" d="M907-27a3,3,0,0,0,3,3,3,3,0,0,0,3-3,3,3,0,0,0-3-3A3,3,0,0,0,907-27Zm4.5,0a1.5,1.5,0,0,1-1.5,1.5,1.5,1.5,0,0,1-1.5-1.5,1.5,1.5,0,0,1,1.5-1.5A1.5,1.5,0,0,1,911.5-27Z" fill="none"/>
    </clipPath>
    <clipPath id="clip-path-13">
      <path id="Path_351" data-name="Path 351" d="M897-31.5a4.5,4.5,0,0,0,4.5,4.5,4.5,4.5,0,0,0,4.5-4.5,4.5,4.5,0,0,0-4.5-4.5A4.505,4.505,0,0,0,897-31.5Zm7.714,0a3.214,3.214,0,0,1-3.214,3.214,3.214,3.214,0,0,1-3.214-3.214,3.214,3.214,0,0,1,3.214-3.214A3.218,3.218,0,0,1,904.714-31.5Z" fill="none"/>
    </clipPath>
    <clipPath id="clip-path-15">
      <path id="Path_354" data-name="Path 354" d="M900.552-30.855a1.643,1.643,0,0,1-.031-1.1.819.819,0,0,0-.459-1.008.709.709,0,0,0-.912.508,3.315,3.315,0,0,0,.229,2.528,2.1,2.1,0,0,0,1.9.915.763.763,0,0,0,.721-.8.763.763,0,0,0-.721-.8A.879.879,0,0,1,900.552-30.855Z" fill="none"/>
    </clipPath>
    <clipPath id="clip-path-17">
      <path id="Path_357" data-name="Path 357" d="M925.811-10.455a4.081,4.081,0,0,0-.753.075,6.306,6.306,0,0,0,.055-.772v-5.576A6.285,6.285,0,0,0,918.83-23H899.283A6.285,6.285,0,0,0,893-16.727v5.576a6.285,6.285,0,0,0,6.283,6.273H910.7a4.188,4.188,0,0,0,3.944,2.788,4.084,4.084,0,0,0,1.76-.4A4.182,4.182,0,0,0,920.226,0a4.182,4.182,0,0,0,3.825-2.487,4.083,4.083,0,0,0,1.76.4A4.185,4.185,0,0,0,930-6.273a4.185,4.185,0,0,0-4.189-4.182ZM910.453-6.273h-11.17a4.888,4.888,0,0,1-4.887-4.879v-5.576a4.888,4.888,0,0,1,4.887-4.879H918.83a4.888,4.888,0,0,1,4.887,4.879v5.576c0,.151-.018.3-.031.449a4.176,4.176,0,0,0-3.833-1.826,4.174,4.174,0,0,0-3.451,2.471,4.084,4.084,0,0,0-1.76-.4,4.189,4.189,0,0,0-4.189,4.182Zm15.358,2.788a2.757,2.757,0,0,1-1.724-.614.7.7,0,0,0-.676-.1.7.7,0,0,0-.441.523A2.784,2.784,0,0,1,920.23-1.4a2.784,2.784,0,0,1-2.741-2.285.7.7,0,0,0-.441-.523.7.7,0,0,0-.676.1,2.758,2.758,0,0,1-1.731.614,2.79,2.79,0,0,1-2.792-2.788,2.79,2.79,0,0,1,2.792-2.788,2.757,2.757,0,0,1,1.724.614.7.7,0,0,0,.676.1.7.7,0,0,0,.441-.523,2.784,2.784,0,0,1,2.741-2.285,2.784,2.784,0,0,1,2.741,2.285.7.7,0,0,0,.441.523.7.7,0,0,0,.676-.1,2.758,2.758,0,0,1,1.731-.614A2.79,2.79,0,0,1,928.6-6.273a2.79,2.79,0,0,1-2.793,2.788Z" fill="none"/>
    </clipPath>
  </defs>
  <g id="Group_266" data-name="Group 266" transform="translate(-1245 -770)">
    <g id="Group_241" data-name="Group 241" transform="translate(357 806)" clip-path="url(#clip-path)">
      <g id="Group_240" data-name="Group 240" clip-path="url(#clip-path-2)">
        <path id="Path_331" data-name="Path 331" d="M894.862-14.056H903V-6h-8.138Z"/>
      </g>
    </g>
    <g id="Group_243" data-name="Group 243" transform="translate(357 806)" clip-path="url(#clip-path-3)">
      <g id="Group_242" data-name="Group 242" clip-path="url(#clip-path-2)">
        <path id="Path_334" data-name="Path 334" d="M901-10h4v3h-4Z"/>
      </g>
    </g>
    <g id="Group_245" data-name="Group 245" transform="translate(357 806)" clip-path="url(#clip-path-5)">
      <g id="Group_244" data-name="Group 244" clip-path="url(#clip-path-2)">
        <path id="Path_337" data-name="Path 337" d="M915-22h8.138v8H915Z"/>
      </g>
    </g>
    <g id="Group_247" data-name="Group 247" transform="translate(357 806)" clip-path="url(#clip-path-7)">
      <g id="Group_246" data-name="Group 246" clip-path="url(#clip-path-2)">
        <path id="Path_340" data-name="Path 340" d="M913-22h4v3h-4Z"/>
      </g>
    </g>
    <g id="Group_249" data-name="Group 249" transform="translate(357 806)" clip-path="url(#clip-path-9)">
      <g id="Group_248" data-name="Group 248" clip-path="url(#clip-path-2)">
        <path id="Path_343" data-name="Path 343" d="M887-31h9v9h-9Z"/>
      </g>
    </g>
    <g id="Group_251" data-name="Group 251" transform="translate(357 806)" clip-path="url(#clip-path-11)">
      <g id="Group_250" data-name="Group 250" clip-path="url(#clip-path-2)">
        <path id="Path_346" data-name="Path 346" d="M906-31h8v8h-8Z"/>
      </g>
    </g>
    <g id="Group_253" data-name="Group 253" transform="translate(357 806)" clip-path="url(#clip-path-13)">
      <g id="Group_252" data-name="Group 252" clip-path="url(#clip-path-2)">
        <path id="Path_349" data-name="Path 349" d="M896-37h11v11H896Z"/>
      </g>
    </g>
    <g id="Group_255" data-name="Group 255" transform="translate(357 806)" clip-path="url(#clip-path-15)">
      <g id="Group_254" data-name="Group 254" clip-path="url(#clip-path-2)">
        <path id="Path_352" data-name="Path 352" d="M897.888-34.1H903v6.157h-5.112Z"/>
      </g>
    </g>
    <g id="Group_257" data-name="Group 257" transform="translate(357 806)" clip-path="url(#clip-path-17)">
      <g id="Group_256" data-name="Group 256" clip-path="url(#clip-path-2)">
        <path id="Path_355" data-name="Path 355" d="M892-24h39V1H892Z"/>
      </g>
    </g>
  </g>
</svg>
