<svg xmlns="http://www.w3.org/2000/svg" xmlns:xlink="http://www.w3.org/1999/xlink" width="33" height="33" viewBox="0 0 33 33">
  <defs>
    <clipPath id="clip-path">
      <path id="Path_328" data-name="Path 328" d="M348.063-26.687a.938.938,0,0,0,.938-.937v-3.75a.938.938,0,0,0-.937-.937,7.606,7.606,0,0,1-2.875-.78v-3.97A.938.938,0,0,0,344.25-38H340.5a.938.938,0,0,0-.937.938v2.921a12.932,12.932,0,0,0-3.75,1.048v-3.97a.938.938,0,0,0-.937-.937h-3.75a.938.938,0,0,0-.937.938v3.97a12.931,12.931,0,0,0-3.75-1.048v-2.921A.938.938,0,0,0,325.5-38h-3.75a.938.938,0,0,0-.937.938v3.97a7.6,7.6,0,0,1-2.875.78.938.938,0,0,0-.937.938v3.75a.938.938,0,0,0,.938.938,10.389,10.389,0,0,0,2.875-.423v2.455a7.6,7.6,0,0,1-2.875.78.938.938,0,0,0-.937.938v3.75a.938.938,0,0,0,.938.938,10.454,10.454,0,0,0,2.875-.419v2.451a7.6,7.6,0,0,1-2.875.781A.938.938,0,0,0,317-14.5v3.75a.938.938,0,0,0,.938.938,10.389,10.389,0,0,0,2.875-.423v3.3A.938.938,0,0,0,321.75-6h3.75a.938.938,0,0,0,.938-.937v-4.638c1.092.252,2.233.907,3.75,1.349v3.289a.938.938,0,0,0,.938.938h3.75a.938.938,0,0,0,.938-.937v-3.289c1.522-.444,2.654-1.1,3.75-1.349v4.638A.938.938,0,0,0,340.5-6h3.75a.938.938,0,0,0,.938-.937v-3.3a10.388,10.388,0,0,0,2.875.423A.938.938,0,0,0,349-10.75V-14.5a.938.938,0,0,0-.937-.937,7.6,7.6,0,0,1-2.875-.78v-2.451a10.454,10.454,0,0,0,2.875.419.938.938,0,0,0,.938-.937v-3.75a.938.938,0,0,0-.937-.937,7.6,7.6,0,0,1-2.875-.78V-27.11A10.393,10.393,0,0,0,348.063-26.687Zm-4.75-9.437v2.352a10.287,10.287,0,0,0-1.875-.368v-1.984ZM340.5-32.312c2.785,0,4.371,1.445,6.625,1.8v1.892c-2.725-.33-4.217-1.818-6.625-1.818-1.775,0-3.016.8-4.687,1.356v-1.992a11.993,11.993,0,0,1,4.688-1.239Zm-4.687,16.095v-2.447c1.524-.444,2.656-1.1,3.75-1.348v2.747A12.934,12.934,0,0,0,335.813-16.218Zm-5.625,0a12.932,12.932,0,0,0-3.75-1.048v-2.747c1.092.252,2.227.905,3.75,1.349Zm0-10.9v2.463a12.932,12.932,0,0,0-3.75-1.048v-2.747C327.531-28.2,328.559-27.583,330.188-27.118Zm1.113,6.807c-1.841-.406-3.186-1.34-4.863-1.612v-1.894C329.04-23.5,330.6-22,333-22s3.964-1.5,6.563-1.818v1.894c-1.676.272-3.026,1.207-4.862,1.612a7.882,7.882,0,0,1-1.7.187A7.9,7.9,0,0,1,331.3-20.312Zm8.262-5.392a12.937,12.937,0,0,0-3.75,1.048v-2.463c1.63-.465,2.656-1.08,3.75-1.332Zm-5.625-10.421v12.138a4.131,4.131,0,0,1-.937.112,4.132,4.132,0,0,1-.937-.112V-36.125Zm-11.25,0h1.875v1.984a10.287,10.287,0,0,0-1.875.368Zm-3.812,5.613c2.268-.358,3.833-1.8,6.625-1.8a11.994,11.994,0,0,1,4.688,1.239v1.992c-1.673-.557-2.912-1.356-4.687-1.356-2.407,0-3.9,1.489-6.625,1.818Zm0,10.331v-1.894a9.419,9.419,0,0,0,1.938-.56v2A9.4,9.4,0,0,1,318.875-20.181Zm3.813-7.6a12.506,12.506,0,0,1,1.875-.669v11.184a10.288,10.288,0,0,0-1.875.368Zm0,19.907v-3.032a12.524,12.524,0,0,1,1.875-.669v3.7Zm2.813-5.687c-2.407,0-3.9,1.489-6.625,1.818v-1.892c2.268-.358,3.833-1.8,6.625-1.8a11.868,11.868,0,0,1,4.688,1.243v2C328.541-12.763,327.265-13.562,325.5-13.562Zm6.563,5.688V-18.3c.3.03.613.046.938.046s.637-.017.938-.046V-7.875Zm11.25,0h-1.875v-3.7a12.517,12.517,0,0,1,1.875.669Zm3.813-5.762v1.892c-2.725-.33-4.217-1.818-6.625-1.818-1.765,0-3.044.8-4.687,1.368v-2a11.86,11.86,0,0,1,4.688-1.243C343.285-15.437,344.871-13.992,347.125-13.637Zm0-8.437v1.894a9.4,9.4,0,0,1-1.937-.452v-2a9.422,9.422,0,0,0,1.938.56ZM343.313-16.9a10.287,10.287,0,0,0-1.875-.368V-28.451a12.516,12.516,0,0,1,1.875.669Z" fill="none"/>
    </clipPath>
    <clipPath id="clip-path-2">
      <path id="Path_327" data-name="Path 327" d="M-270,3969H1170V-242H-270Z" fill="none"/>
    </clipPath>
  </defs>
  <g id="Group_262" data-name="Group 262" transform="translate(-673.5 -767.5)">
    <g id="Group_237" data-name="Group 237" transform="translate(357 806)" clip-path="url(#clip-path)">
      <g id="Group_236" data-name="Group 236" clip-path="url(#clip-path-2)">
        <path id="Path_326" data-name="Path 326" d="M316-39h34V-5H316Z"/>
      </g>
    </g>
    <g id="Group_238" data-name="Group 238" transform="translate(674 768)">
      <path id="Path_329" data-name="Path 329" d="M31.063,11.313A.938.938,0,0,0,32,10.375V6.625a.938.938,0,0,0-.937-.937,7.606,7.606,0,0,1-2.875-.78V.938A.938.938,0,0,0,27.25,0H23.5a.938.938,0,0,0-.937.938V3.859a12.932,12.932,0,0,0-3.75,1.048V.938A.938.938,0,0,0,17.875,0h-3.75a.938.938,0,0,0-.937.938v3.97a12.931,12.931,0,0,0-3.75-1.048V.938A.938.938,0,0,0,8.5,0H4.75a.938.938,0,0,0-.937.938v3.97a7.6,7.6,0,0,1-2.875.78A.938.938,0,0,0,0,6.625v3.75a.938.938,0,0,0,.938.938,10.389,10.389,0,0,0,2.875-.423v2.455a7.594,7.594,0,0,1-2.875.78A.938.938,0,0,0,0,15.063v3.75a.938.938,0,0,0,.938.938,10.454,10.454,0,0,0,2.875-.419v2.451a7.6,7.6,0,0,1-2.875.781A.938.938,0,0,0,0,23.5v3.75a.938.938,0,0,0,.938.938,10.389,10.389,0,0,0,2.875-.423v3.3A.938.938,0,0,0,4.75,32H8.5a.938.938,0,0,0,.938-.937V26.424c1.092.252,2.233.907,3.75,1.349v3.289a.938.938,0,0,0,.938.938h3.75a.938.938,0,0,0,.938-.937V27.774c1.522-.444,2.654-1.1,3.75-1.349v4.638A.938.938,0,0,0,23.5,32h3.75a.938.938,0,0,0,.938-.937v-3.3a10.388,10.388,0,0,0,2.875.423A.938.938,0,0,0,32,27.25V23.5a.938.938,0,0,0-.937-.937,7.6,7.6,0,0,1-2.875-.78V19.331a10.454,10.454,0,0,0,2.875.419A.938.938,0,0,0,32,18.813v-3.75a.938.938,0,0,0-.937-.937,7.6,7.6,0,0,1-2.875-.78V10.89A10.393,10.393,0,0,0,31.063,11.313Zm-4.75-9.437V4.227a10.286,10.286,0,0,0-1.875-.368V1.875ZM23.5,5.688c2.785,0,4.371,1.445,6.625,1.8V9.38C27.4,9.051,25.908,7.563,23.5,7.563c-1.775,0-3.016.8-4.687,1.356V6.927A11.993,11.993,0,0,1,23.5,5.688ZM18.813,21.782V19.335c1.524-.444,2.656-1.1,3.75-1.348v2.747A12.934,12.934,0,0,0,18.813,21.782Zm-5.625,0a12.931,12.931,0,0,0-3.75-1.048V17.987c1.092.252,2.227.905,3.75,1.349Zm0-10.9v2.463A12.931,12.931,0,0,0,9.438,12.3V9.549C10.531,9.8,11.559,10.417,13.188,10.882ZM14.3,17.688c-1.841-.406-3.186-1.34-4.863-1.612V14.182C12.04,14.5,13.6,16,16,16s3.964-1.5,6.563-1.818v1.894c-1.676.272-3.026,1.207-4.862,1.612a7.825,7.825,0,0,1-3.4,0ZM22.563,12.3a12.936,12.936,0,0,0-3.75,1.048V10.881c1.63-.465,2.656-1.08,3.75-1.332ZM16.938,1.875V14.013a3.986,3.986,0,0,1-1.875,0V1.875Zm-11.25,0H7.563V3.859a10.286,10.286,0,0,0-1.875.368ZM1.875,7.488c2.268-.358,3.833-1.8,6.625-1.8a11.994,11.994,0,0,1,4.688,1.239V8.918C11.514,8.361,10.275,7.563,8.5,7.563c-2.407,0-3.9,1.489-6.625,1.818Zm0,10.331V15.925a9.42,9.42,0,0,0,1.938-.56v2A9.4,9.4,0,0,1,1.875,17.819Zm3.813-7.6a12.5,12.5,0,0,1,1.875-.669V20.734a10.286,10.286,0,0,0-1.875.368Zm0,19.907V27.093a12.522,12.522,0,0,1,1.875-.669v3.7ZM8.5,24.438c-2.407,0-3.9,1.489-6.625,1.818V24.363c2.268-.358,3.833-1.8,6.625-1.8a11.868,11.868,0,0,1,4.688,1.243v2C11.541,25.237,10.265,24.438,8.5,24.438Zm6.563,5.688V19.7c.3.03.613.046.938.046s.637-.017.938-.046V30.125Zm11.25,0H24.438v-3.7a12.516,12.516,0,0,1,1.875.669Zm3.813-5.762v1.892c-2.725-.33-4.217-1.818-6.625-1.818-1.765,0-3.044.8-4.687,1.368v-2A11.86,11.86,0,0,1,23.5,22.563C26.285,22.563,27.871,24.008,30.125,24.363Zm0-8.438v1.894a9.4,9.4,0,0,1-1.937-.452v-2a9.422,9.422,0,0,0,1.938.56ZM26.313,21.1a10.285,10.285,0,0,0-1.875-.368V9.549a12.512,12.512,0,0,1,1.875.669Z" fill="none" stroke="#fff" stroke-width="1"/>
    </g>
  </g>
</svg>
