<svg xmlns="http://www.w3.org/2000/svg" xmlns:xlink="http://www.w3.org/1999/xlink" width="33" height="36" viewBox="0 0 33 36">
  <defs>
    <clipPath id="clip-path">
      <path id="Path_360" data-name="Path 360" d="M0-15.281a.561.561,0,0,0,.294.492L16.225-6.07A.574.574,0,0,0,16.5-6a.574.574,0,0,0,.275-.07l15.931-8.719A.561.561,0,0,0,33-15.281a.561.561,0,0,0-.294-.492L25.64-19.641l7.067-3.867A.561.561,0,0,0,33-24a.562.562,0,0,0-.294-.492L25.64-28.36l7.066-3.867A.561.561,0,0,0,33-32.719a.561.561,0,0,0-.294-.492L16.775-41.93a.578.578,0,0,0-.551,0L.293-33.211A.562.562,0,0,0,0-32.719a.561.561,0,0,0,.294.492L7.36-28.36.294-24.492A.562.562,0,0,0,0-24a.561.561,0,0,0,.294.492L7.36-19.641.294-15.774A.561.561,0,0,0,0-15.281Zm15.325,0L8.532-11.567,5.726-13.1l6.791-3.716ZM16.5-7.205,13.688-8.744l14.758-8.075,2.811,1.538ZM27.271-17.463,12.513-9.387,9.706-10.922l7.069-3.866L24.466-19ZM8.532-36.434,11.34-34.9,8.533-33.362,5.726-34.9Zm3.981-2.18,2.809,1.537-2.807,1.535L9.707-37.078ZM23.29-37.079,20.479-35.54l-2.807-1.536,2.812-1.538Zm3.98,2.179L24.46-33.362,21.653-34.9l2.812-1.538Zm-6.792,3.716-2.807-1.535,2.807-1.536,2.806,1.536Zm3.981-.892,2.811,1.538L24.464-29,21.653-30.54ZM19.3-30.54,16.5-29,13.689-30.54,16.5-32.076Zm0-4.357L16.5-33.362,13.689-34.9,16.5-36.433Zm-6.788.643,2.806,1.536-2.807,1.535L9.708-32.719ZM11.339-30.54,8.531-29,5.726-30.539l2.808-1.536Zm1.175.643,2.807,1.536-2.809,1.537L9.706-28.361ZM16.5-27.718l2.811,1.538L16.5-24.643l-2.812-1.539Zm3.987.895-2.812-1.538L20.479-29.9l2.811,1.538Zm7.962-4.358-2.811-1.538,2.811-1.538,2.811,1.538ZM16.5-40.795l2.808,1.537L16.5-37.72l-2.809-1.536ZM4.551-34.255l2.808,1.536L4.551-31.183,1.743-32.719Zm3.984,6.539,7.69,4.209a.574.574,0,0,0,.275.07.574.574,0,0,0,.275-.07l7.69-4.209L31.257-24,16.5-15.924,1.743-24Zm0,8.719,2.808,1.536L4.551-13.745,1.743-15.281Z" fill="none"/>
    </clipPath>
    <clipPath id="clip-path-2">
      <path id="Path_359" data-name="Path 359" d="M-270,3969H1170V-242H-270Z" fill="none"/>
    </clipPath>
  </defs>
  <g id="Group_260" data-name="Group 260" transform="translate(-357 -764)">
    <g id="Group_259" data-name="Group 259" transform="translate(357 806)" clip-path="url(#clip-path)">
      <g id="Group_258" data-name="Group 258" clip-path="url(#clip-path-2)">
        <path id="Path_358" data-name="Path 358" d="M-1-43H34V-5H-1Z"/>
      </g>
    </g>
  </g>
</svg>
