<?xml version="1.0" encoding="utf-8"?>
<!-- Generator: Adobe Illustrator 25.2.3, SVG Export Plug-In . SVG Version: 6.00 Build 0)  -->
<svg version="1.1" id="layer" xmlns="http://www.w3.org/2000/svg" xmlns:xlink="http://www.w3.org/1999/xlink" x="0px" y="0px"
	 viewBox="0 0 652 652" style="enable-background:new 0 0 652 652;" xml:space="preserve">
<style type="text/css">
	.st0{fill:#1D1D1B;}
	.st1{fill:#FFFFFF;}
</style>
<g>
	<path class="st0" d="M578.2,272c-45.5,0-63.1,41-63.1,99.6c0,59.9,21.3,100.8,61.5,100.8c33.2,0,39.4-10.2,48.8-16.8
		c17.6-41,26.6-84.9,26.6-129.1C652,146.5,506.5,1,326.5,1S1,146.9,1,326.5S146.9,652,326.5,652c117.2,0,219.7-61.9,277.1-154.6
		c-9.4,3.3-20.9,4.9-34.8,4.9c-54.5,0-95.1-49.2-95.1-129.5c0-82,40.2-129.1,95.9-129.1c30.7,0,47.1,9.8,54.9,16.8l-9.8,23.8
		C607.7,278.1,596.7,272,578.2,272z"/>
	<rect x="197.8" y="248.2" class="st1" width="40.6" height="249.7"/>
	<path class="st1" d="M222,200.2c-0.8,0-1.2,0-2,0s-1.2,0-2,0c-6.6,0-12.7-2.5-17.6-7c-16-11.9-19.7-34.4-7.8-50.8
		c11.9-16,34.4-19.7,50.8-7.8c16,11.9,19.7,34.4,7.8,50.8C244.1,194.5,233.4,200.2,222,200.2L222,200.2z"/>
	<path class="st1" d="M388,497.9h-36.5l-82.8-249.7h43.5l52.5,178.7c2.9,9.8,5.3,20.1,6.6,30.7h0.8c0.8-10.2,2.9-20.5,6.1-30.7
		l53.3-178.7h38.1L388,497.9z"/>
</g>
</svg>
