<?xml version="1.0" encoding="UTF-8"?>
<svg width="408px" height="410px" viewBox="0 0 408 410" version="1.1" xmlns="http://www.w3.org/2000/svg" xmlns:xlink="http://www.w3.org/1999/xlink">
    <title>research</title>
    <g id="Page-1" stroke="none" stroke-width="1" fill="none" fill-rule="evenodd">
        <g id="Keşfet" transform="translate(-967.000000, -139.000000)" fill="#E0E0E0" fill-rule="nonzero" stroke="#FFFFFF" stroke-width="7">
            <g id="research" transform="translate(1170.774628, 343.799635) rotate(-10.000000) translate(-1170.774628, -343.799635) translate(998.708907, 170.672792)">
                <path d="M118.429735,37.1863435 C80.4667683,37.1863435 48.4840306,63.2777 39.4689281,98.4696672 C39.4174896,98.6500361 39.3707273,98.8324091 39.3346535,99.0187902 C37.7674486,105.320343 36.9297355,111.907147 36.9297355,118.686343 C36.9297355,163.625577 73.4905019,200.186343 118.429735,200.186343 C163.368969,200.186343 199.929735,163.625577 199.929735,118.686343 C199.929735,73.7471099 163.368969,37.1863435 118.429735,37.1863435 Z M111.916416,152.923024 C108.226871,152.923024 105.236088,155.913807 105.236088,159.603352 C105.236088,163.292897 108.226871,166.28368 111.916416,166.28368 L167.13801,166.28368 C154.758026,178.949581 137.498063,186.825688 118.429735,186.825688 C80.8575675,186.825688 50.2903912,156.258512 50.2903912,118.686343 C50.2903912,114.695516 50.6384363,110.784184 51.2997888,106.979737 L80.3886084,106.979737 C81.949133,106.979737 82.8155716,107.908302 83.192342,108.462102 C83.5697806,109.015901 84.1175675,110.161577 83.5470675,111.614548 L83.0814486,112.799639 C81.0546371,117.961528 81.7086412,123.778757 84.8323625,128.360794 C87.9560838,132.942831 93.1313338,135.679093 98.676674,135.679093 L123.945014,135.679093 C127.634559,135.679093 130.625342,132.688311 130.625342,128.998766 C130.625342,125.309221 127.634559,122.318438 123.945014,122.318438 L98.676674,122.318438 C97.1161494,122.318438 96.2497109,121.389872 95.8722724,120.836073 C95.4948338,120.282274 94.947047,119.136598 95.517547,117.683626 L95.9831658,116.498536 C98.0099773,111.336647 97.3559732,105.519417 94.2322519,100.93738 C91.1085306,96.3553435 85.9332806,93.6190812 80.3879404,93.6190812 L55.0681617,93.6190812 C65.0746248,68.4142041 89.7043256,50.5469992 118.429735,50.5469992 C140.526256,50.5469992 160.196481,61.1219582 172.654625,77.4740648 L133.129129,77.4740648 C129.439584,77.4740648 126.448801,80.4648476 126.448801,84.1543927 C126.448801,87.8439377 129.439584,90.8347205 133.129129,90.8347205 L180.612899,90.8347205 C184.438723,99.3421181 186.569748,108.770065 186.569748,118.686343 C186.569748,131.158516 183.197518,142.856438 177.323506,152.923024 L111.916416,152.923024 Z" id="Shape"></path>
                <path d="M303.904397,261.835935 C302.602397,260.533935 300.796397,259.784235 298.955397,259.784235 C297.114397,259.784235 295.308397,260.533235 294.006397,261.835935 C292.704397,263.144235 291.955397,264.943235 291.955397,266.784235 C291.955397,268.625235 292.704397,270.431235 294.006397,271.740235 C295.308397,273.042235 297.114397,273.784235 298.955397,273.784235 C300.796397,273.784235 302.602397,273.042235 303.904397,271.740235 C305.213397,270.431235 305.955397,268.632935 305.955397,266.784235 C305.955397,264.943235 305.213397,263.137235 303.904397,261.835935 Z" id="Path"></path>
                <path d="M333.890337,293.086403 L319.709477,278.906897 C317.093318,276.291409 312.851186,276.291409 310.235026,278.906897 C307.618866,281.523054 307.618866,285.765182 310.235026,288.382009 L324.415885,302.562185 C327.768992,305.915288 329.616048,310.37314 329.616048,315.11572 C329.616048,319.858301 327.769662,324.316153 324.416555,327.669256 C317.493948,334.591186 306.230727,334.592526 299.30879,327.669256 L245.425945,273.785794 L270.533041,248.678723 L277.073106,255.218781 C279.689936,257.834269 283.931397,257.834939 286.548227,255.218781 C289.164387,252.602624 289.164387,248.360496 286.548227,245.743669 L258.090705,217.285505 C254.86556,214.060362 250.576531,212.283653 246.015503,212.283653 C241.453804,212.283653 237.165446,214.059692 233.93963,217.285505 L228.724059,222.501071 L208.135785,201.912817 C227.008314,180.811381 238.502669,152.976941 238.502669,122.504905 C238.502669,56.7499174 185.006386,3.25368713 119.251334,3.25368713 C53.4962826,3.25368713 -3.63797881e-12,56.7492475 -3.63797881e-12,122.504905 C-3.63797881e-12,188.260562 53.4962826,241.756123 119.251334,241.756123 C149.7234,241.756123 177.557867,230.261779 198.660664,211.388599 L219.248938,231.976853 L214.033367,237.193089 C210.808221,240.418231 209.03151,244.707255 209.03151,249.26761 C209.03151,253.829974 210.808221,258.117658 214.033367,261.3428 L231.207569,278.516986 C231.209579,278.518995 231.210918,278.521005 231.212928,278.523015 C231.214938,278.525025 231.216948,278.526365 231.218958,278.528375 L289.833668,337.143698 C295.906777,343.216131 303.884557,346.253687 311.861668,346.253687 C319.838778,346.253687 327.816558,343.216801 333.890337,337.143698 C346.036554,324.996823 346.036554,305.233278 333.890337,293.086403 Z M119.251334,228.35711 C60.8838357,228.35711 13.3990263,180.871677 13.3990263,122.504905 C13.3990263,64.1374634 60.8838357,16.6527004 119.251334,16.6527004 C177.618833,16.6527004 225.103642,64.1374634 225.103642,122.504905 C225.103642,180.871677 177.618833,228.35711 119.251334,228.35711 Z M223.507818,251.868358 C222.813079,251.172949 222.430536,250.249757 222.430536,249.26761 C222.430536,248.285462 222.813079,247.3616 223.507818,246.666861 L243.413412,226.760617 C244.108151,226.066548 245.032014,225.684006 246.014163,225.684006 C246.996311,225.684006 247.920174,226.066548 248.614914,226.761287 L261.05792,239.204281 L235.950824,264.311352 L223.507818,251.868358 Z" id="Shape"></path>
                <path d="M111.174396,278.448089 C110.901868,278.36414 110.62867,278.304369 110.3548,278.256015 C108.153102,273.830929 105.224442,269.679179 101.54331,265.996196 C92.6680515,257.117146 80.8688308,252.227322 68.3178108,252.227322 C55.7667908,252.227322 43.9675701,257.117146 35.0923114,265.996196 C31.4011113,269.689253 28.4113668,273.894058 26.164024,278.443387 C25.6149421,278.476967 25.0611614,278.570317 24.5134219,278.746945 C5.75535937,284.777123 1.8178108,293.21897 1.8178108,299.238403 C1.8178108,309.066406 11.9315245,315.993824 26.2895477,320.281235 C28.5227942,324.734527 31.4689075,328.854713 35.0929826,332.48061 C44.252851,341.645085 56.2856665,346.227322 68.318482,346.227322 C80.3506263,346.227322 92.3834418,341.645085 101.54331,332.48061 C105.205647,328.816433 108.122896,324.688188 110.320566,320.289294 C124.692686,316.002555 134.817811,309.071778 134.817811,299.238403 C134.817811,293.083981 130.716477,284.482297 111.174396,278.448089 Z M21.5901311,304.167851 C16.7416972,301.786404 15.3092511,299.752839 15.2427974,299.247806 C15.3092511,298.734713 16.7396834,296.696447 21.5901311,294.310971 C21.4216475,295.937554 21.3310289,297.580927 21.3310289,299.238403 C21.3310289,300.896551 21.4216475,302.540596 21.5901311,304.167851 Z M45.9584956,324.277177 C53.2314821,325.198594 60.8414357,325.649229 68.3178108,325.649229 C75.7948571,325.649229 83.4041395,325.198594 90.6777973,324.277177 C77.9817874,335.638412 58.6545054,335.639084 45.9584956,324.277177 Z M100.427694,308.981114 C91.0818894,311.081166 79.9686854,312.217491 68.3178108,312.217491 C56.6669362,312.217491 45.5537322,311.081166 36.2079278,308.981114 C32.7523362,297.51041 35.5427197,284.542068 44.5857907,275.494449 C50.9250694,269.151983 59.353276,265.65906 68.3178108,265.65906 C77.2823456,265.65906 85.7105522,269.151311 92.0498309,275.494449 C101.092902,284.542068 103.883285,297.51041 100.427694,308.981114 Z M115.017298,304.181954 C115.361649,300.895208 115.361649,297.580927 115.017298,294.294181 C119.878486,296.676971 121.32637,298.715909 121.394167,299.229673 C121.327042,299.748809 119.888554,301.79312 115.017298,304.181954 Z" id="Shape"></path>
                <path d="M302.631441,0 C279.748207,0 261.131441,18.6167661 261.131441,41.5 C261.131441,64.3832339 279.748207,83 302.631441,83 C325.514675,83 344.131441,64.3832339 344.131441,41.5 C344.131441,18.6167661 325.514675,0 302.631441,0 Z M302.631441,69.6129032 C287.129852,69.6129032 274.518538,57.0015887 274.518538,41.5 C274.518538,25.9984113 287.129852,13.3870968 302.631441,13.3870968 C318.13303,13.3870968 330.744344,25.9984113 330.744344,41.5 C330.744344,57.0015887 318.13303,69.6129032 302.631441,69.6129032 Z" id="Shape"></path>
                <path d="M329.910759,169.973474 L306.890688,146.953503 C304.165077,144.227904 299.745469,144.227904 297.01916,146.953503 L273.999089,169.973474 C271.273477,172.699073 271.273477,177.118662 273.999089,179.844959 L297.01916,202.86493 C298.327872,204.173636 300.103533,204.909304 301.954575,204.909304 C303.805617,204.909304 305.581278,204.173636 306.88999,202.86493 L329.910061,179.844959 C332.63637,177.11936 332.63637,172.699771 329.910759,169.973474 Z M301.955273,188.058749 L288.806032,174.909565 L301.955273,161.760381 L315.104514,174.909565 L301.955273,188.058749 Z" id="Shape"></path>
                <path d="M155.588378,123.986192 C154.286378,122.677192 152.480378,121.935192 150.639378,121.935192 C148.791378,121.935192 146.985378,122.677192 145.683378,123.986192 C144.381378,125.288192 143.639378,127.087192 143.639378,128.935192 C143.639378,130.776192 144.381378,132.582192 145.683378,133.884192 C146.992378,135.186192 148.791378,135.935192 150.639378,135.935192 C152.480378,135.935192 154.286378,135.186192 155.588378,133.884192 C156.890378,132.582192 157.639378,130.776192 157.639378,128.935192 C157.639378,127.087892 156.890378,125.288892 155.588378,123.986192 Z" id="Path"></path>
                <path d="M193.846275,304.370042 C192.544275,303.068042 190.738275,302.319042 188.897275,302.319042 C187.056275,302.319042 185.250275,303.067342 183.948275,304.370042 C182.646275,305.672042 181.897275,307.478042 181.897275,309.319042 C181.897275,311.160042 182.646275,312.966042 183.948275,314.267342 C185.250275,315.569342 187.056275,316.319042 188.897275,316.319042 C190.738275,316.319042 192.544275,315.570042 193.846275,314.267342 C195.148275,312.966042 195.897275,311.160042 195.897275,309.319042 C195.897275,307.478042 195.148275,305.672042 193.846275,304.370042 Z" id="Path"></path>
                <path d="M287.083946,109.594624 C285.781946,108.292624 283.975946,107.550624 282.134946,107.550624 C280.293946,107.550624 278.487946,108.292624 277.185946,109.594624 C275.883946,110.903624 275.134946,112.709624 275.134946,114.550624 C275.134946,116.391624 275.883946,118.197624 277.185946,119.499624 C278.487946,120.801624 280.293946,121.550624 282.134946,121.550624 C283.975946,121.550624 285.781946,120.800924 287.083946,119.499624 C288.385946,118.197624 289.134946,116.391624 289.134946,114.550624 C289.134946,112.709624 288.385946,110.903624 287.083946,109.594624 Z" id="Path"></path>
                <path d="M340.801338,236.862937 C339.499338,235.560937 337.693338,234.811937 335.852338,234.811937 C334.004338,234.811937 332.205338,235.560237 330.896338,236.862937 C329.594338,238.164937 328.852338,239.970937 328.852338,241.811937 C328.852338,243.659937 329.594338,245.458937 330.896338,246.760237 C332.205338,248.069237 334.011338,248.811937 335.852338,248.811937 C337.693338,248.811937 339.499338,248.069237 340.801338,246.760237 C342.103338,245.458937 342.852338,243.652937 342.852338,241.811937 C342.852338,239.970937 342.103338,238.164937 340.801338,236.862937 Z" id="Path"></path>
            </g>
        </g>
    </g>
</svg>