<?xml version="1.0" encoding="utf-8"?>
<!-- Generator: Adobe Illustrator 25.2.3, SVG Export Plug-In . SVG Version: 6.00 Build 0)  -->
<svg version="1.1" id="Layer_2_1_" xmlns="http://www.w3.org/2000/svg" xmlns:xlink="http://www.w3.org/1999/xlink" x="0px" y="0px"
	 viewBox="0 0 328.9 123.3" style="enable-background:new 0 0 328.9 123.3;" xml:space="preserve">
<style type="text/css">
	.st0{fill:#003E52;}
</style>
<g>
	<path class="st0" d="M24.4,78.9c-3.3-3.4-5-8.2-5-14.4V40h8v24.1c0,8.5,3.7,12.7,11,12.7c7.3,0,11-4.2,11-12.7V40h7.9v24.4
		c0,6.3-1.7,11.1-5,14.4c-3.3,3.4-8,5-14,5S27.8,82.3,24.4,78.9"/>
	<polygon class="st0" points="115.8,40 115.8,83.3 109.1,83.3 85.2,54 85.2,83.3 77.3,83.3 77.3,40 83.9,40 107.8,69.3 107.8,40 	
		"/>
	<rect x="136.1" y="40" class="st0" width="8" height="43.3"/>
	<path class="st0" d="M194,61.2h7.6v17.3c-2.2,1.8-4.8,3.1-7.8,4.1c-3,0.9-6,1.4-9.2,1.4c-4.4,0-8.4-1-11.9-2.9
		c-3.5-1.9-6.3-4.6-8.4-8c-2-3.4-3-7.2-3-11.4s1-8.1,3-11.4c2-3.4,4.8-6,8.4-8c3.6-1.9,7.6-2.9,12-2.9c3.6,0,6.9,0.6,9.9,1.8
		c3,1.2,5.5,2.9,7.5,5.3l-5.1,4.9c-3.3-3.3-7.3-4.9-11.9-4.9c-3.1,0-5.8,0.6-8.1,1.9c-2.4,1.3-4.2,3.1-5.6,5.4c-1.3,2.3-2,4.9-2,7.9
		c0,2.9,0.7,5.5,2,7.8c1.3,2.3,3.2,4.1,5.6,5.4c2.4,1.3,5.1,2,8.1,2c3.4,0,6.4-0.7,8.9-2.2V61.2z"/>
	<polygon class="st0" points="253.4,76.6 253.4,83.3 220.9,83.3 220.9,40 252.5,40 252.5,46.8 228.9,46.8 228.9,58 249.9,58 
		249.9,64.6 228.9,64.6 228.9,76.6 	"/>
	<polygon class="st0" points="309.5,40 309.5,83.3 302.9,83.3 279,54 279,83.3 271,83.3 271,40 277.6,40 301.5,69.3 301.5,40 	"/>
</g>
</svg>
