<svg xmlns="http://www.w3.org/2000/svg" width="58" height="28" viewBox="0 0 58 28">
  <g id="Page-1" transform="translate(-1)">
    <g id="İletişim" transform="translate(-617 -1074)">
      <g id="mail-_1_" data-name="mail-(1)" transform="translate(617.513 1074)">
        <path id="Path" d="M20.186,19H9.786c-.78,0-1.3.4-1.3,1s.52,1,1.3,1h10.4c.78,0,1.3-.4,1.3-1S20.966,19,20.186,19Z" fill="#fff"/>
        <path id="Path-2" data-name="Path" d="M17.187,13H6.786c-.78,0-1.3.4-1.3,1s.52,1,1.3,1h10.4c.78,0,1.3-.4,1.3-1S17.967,13,17.187,13Z" fill="#fff"/>
        <path id="Path-3" data-name="Path" d="M12.187,8H1.786c-.78,0-1.3.4-1.3,1s.52,1,1.3,1h10.4c.78,0,1.3-.4,1.3-1S12.967,8,12.187,8Z" fill="#fff"/>
        <path id="Path-4" data-name="Path" d="M52.263,5.445a1.543,1.543,0,0,0-1.795-.22l-13.59,8.914a4.59,4.59,0,0,1-4.744,0L18.544,5.225a1.392,1.392,0,0,0-1.795.22.982.982,0,0,0,.256,1.541L30.724,15.9A7.02,7.02,0,0,0,34.57,17a6.729,6.729,0,0,0,3.846-1.1l13.59-8.914A1.069,1.069,0,0,0,52.263,5.445Z" fill="#fff"/>
        <path id="Path-5" data-name="Path" d="M54.57,0H12.792c-.783,0-1.306.431-1.306,1.077s.522,1.077,1.306,1.077H54.57c.783,0,1.306.431,1.306,1.077V24.769c0,.646-.522,1.077-1.306,1.077H12.792c-.783,0-1.306.431-1.306,1.077S12.009,28,12.792,28H54.57c2.219,0,3.917-1.4,3.917-3.231V3.231C58.486,1.4,56.789,0,54.57,0Z" fill="#fff"/>
        <path id="Path-6" data-name="Path" d="M53.074,22.087l-8.25-6.75a1.541,1.541,0,0,0-1.925,0,.958.958,0,0,0,0,1.575l8.25,6.75a1.541,1.541,0,0,0,1.925,0A.958.958,0,0,0,53.074,22.087Z" fill="#fff"/>
      </g>
    </g>
  </g>
</svg>
