<?xml version="1.0" encoding="UTF-8"?>
<svg width="19px" height="25px" viewBox="0 0 19 25" version="1.1" xmlns="http://www.w3.org/2000/svg" xmlns:xlink="http://www.w3.org/1999/xlink">
    <title>file-pdf-regular</title>
    <g id="Page-1" stroke="none" stroke-width="1" fill="none" fill-rule="evenodd">
        <g id="Ürünler-İç-Sayfa-Detay-Dökümanlar" transform="translate(-630.000000, -1399.000000)" fill="#105268" fill-rule="nonzero">
            <g id="file-pdf-regular" transform="translate(630.000000, 1399.000000)">
                <path d="M18.3023437,4.78422183 L14.1510417,0.688342121 C13.7057292,0.24897481 13.1020833,0 12.4736979,0 L2.375,0 C1.06380208,0.00488185901 0,1.05448155 0,2.34817418 L0,22.6567077 C0,23.9504003 1.06380208,25 2.375,25 L16.625,25 C17.9361979,25 19,23.9504003 19,22.6567077 L19,6.4440539 C19,5.8240578 18.7476562,5.22358914 18.3023437,4.78422183 Z M16.4320313,6.25366139 L12.6666667,6.25366139 L12.6666667,2.53856669 L16.4320313,6.25366139 Z M2.375,22.6567077 L2.375,2.34817418 L10.2916667,2.34817418 L10.2916667,7.42530756 C10.2916667,8.07459481 10.8210937,8.59695372 11.4791667,8.59695372 L16.625,8.59695372 L16.625,22.6567077 L2.375,22.6567077 Z M14.7546875,15.6414763 C14.1510417,15.0556532 12.4291667,15.2167545 11.5682292,15.3241554 C10.7171875,14.8115602 10.1481771,14.1036907 9.74739583,13.0638547 C9.94036458,12.2778754 10.2471354,11.08182 10.0145833,10.3300137 C9.80677083,9.05096661 8.14427083,9.17789494 7.90677083,10.041984 C7.6890625,10.8279633 7.88697917,11.9214997 8.253125,13.3177114 C7.75833333,14.4844757 7.02109375,16.0515524 6.5015625,16.9498145 C5.51197917,17.452646 4.17604167,18.2288616 3.978125,19.2052334 C3.81484375,19.9765671 5.26458333,21.9000195 7.74348958,17.6820933 C8.85182292,17.3208358 10.0591146,16.8765866 11.1278646,16.7008397 C12.0630208,17.1987893 13.1565104,17.5307557 13.8888021,17.5307557 C15.1505208,17.5307557 15.2742187,16.1540715 14.7546875,15.6414763 Z M4.95286458,19.4395626 C5.20520833,18.7707479 6.16510417,17.9994142 6.45703125,17.7309119 C5.51692708,19.2101152 4.95286458,19.4737356 4.95286458,19.4395626 Z M8.99036458,10.1347393 C9.35651042,10.1347393 9.321875,11.7018161 9.07942708,12.1265378 C8.86171875,11.4479594 8.86666667,10.1347393 8.99036458,10.1347393 L8.99036458,10.1347393 Z M7.78307292,16.8033587 C8.26302083,15.9783245 8.67369792,14.9970709 9.00520833,14.1329818 C9.41588542,14.8701426 9.94036458,15.4608475 10.4945312,15.8660418 C9.46536458,16.0759617 8.56979167,16.5055653 7.78307292,16.8033587 L7.78307292,16.8033587 Z M14.2945312,16.5592658 C14.2945312,16.5592658 14.0471354,16.8521773 12.4489583,16.1784808 C14.1856771,16.0515524 14.4726562,16.4421012 14.2945312,16.5592658 Z" id="Shape"></path>
            </g>
        </g>
    </g>
</svg>