<?xml version="1.0" encoding="UTF-8"?>
<svg width="19px" height="25px" viewBox="0 0 19 25" version="1.1" xmlns="http://www.w3.org/2000/svg" xmlns:xlink="http://www.w3.org/1999/xlink">
    <title>Group 6 Copy 3</title>
    <g id="Page-1" stroke="none" stroke-width="1" fill="none" fill-rule="evenodd">
        <g id="Ürünler-İç-Sayfa-Detay-Dökümanlar" transform="translate(-598.000000, -1399.000000)" fill="#105268" fill-rule="nonzero">
            <g id="Group-6-Copy-3" transform="translate(598.000000, 1399.000000)">
                <g id="file-pdf-regular-copy-9">
                    <path d="M18.3023437,4.78422183 L14.1510417,0.688342121 C13.7057292,0.24897481 13.1020833,0 12.4736979,0 L2.375,0 C1.06380208,0.00488185901 0,1.05448155 0,2.34817418 L0,22.6567077 C0,23.9504003 1.06380208,25 2.375,25 L16.625,25 C17.9361979,25 19,23.9504003 19,22.6567077 L19,6.4440539 C19,5.8240578 18.7476562,5.22358914 18.3023437,4.78422183 Z M16.4320313,6.25366139 L12.6666667,6.25366139 L12.6666667,2.53856669 L16.4320313,6.25366139 Z M2.375,22.6567077 L2.375,2.34817418 L10.2916667,2.34817418 L10.2916667,7.42530756 C10.2916667,8.07459481 10.8210937,8.59695372 11.4791667,8.59695372 L16.625,8.59695372 L16.625,22.6567077 L2.375,22.6567077 Z" id="Shape"></path>
                </g>
                <path d="M13.4531089,19 L4.54141868,19 C4.24368971,19 4,19.4497789 4,20 C4,20.5499052 4.24368971,21 4.54141868,21 L13.4585813,21 C13.7563103,21 14,20.5499052 14,20 C14,19.4497789 13.7563103,19 13.4531089,19 Z" id="Path"></path>
                <path d="M9.5710066,16.8344297 C9.68198811,16.9378907 9.83371205,17 9.9970503,17 C10.1605729,17 10.3122969,16.9378907 10.423094,16.8344297 L13.8434269,13.5795775 C14.0652056,13.3724921 14.047692,13.0413517 13.8142989,12.8499571 C13.5807215,12.6533322 13.2072188,12.6686961 12.9913395,12.8757815 L10.5807173,15.1681036 L10.5807173,9.51746821 C10.5807173,9.23274629 10.3180119,9 9.9970503,9 C9.67608876,9 9.41338332,9.23274629 9.41338332,9.51746821 L9.41338332,15.1681036 L7.00866052,12.8757815 C6.78688179,12.6688596 6.41909414,12.6533322 6.1857011,12.8499571 C5.95230807,13.0465819 5.93479436,13.3726556 6.15657304,13.5795775 L9.5710066,16.8344297 Z" id="Path"></path>
            </g>
        </g>
    </g>
</svg>