<?xml version="1.0" encoding="utf-8"?>
<!-- Generator: Adobe Illustrator 25.2.3, SVG Export Plug-In . SVG Version: 6.00 Build 0)  -->
<svg version="1.1" id="layer" xmlns="http://www.w3.org/2000/svg" xmlns:xlink="http://www.w3.org/1999/xlink" x="0px" y="0px"
	 viewBox="0 0 652 652" style="enable-background:new 0 0 652 652;" xml:space="preserve">
<style type="text/css">
	.st0{fill:#1A1A18;}
	.st1{fill:#FFFFFF;}
</style>
<rect y="0.5" class="st0" width="652" height="652"/>
<g>
	<path class="st1" d="M100.7,180.8V97.9c0-16.3-7.7-21.4-19.2-21.4c-13.7,0-20.9,9.9-20.9,24.4V181H24.1V49.1h34.6v19.2
		c6.9-16,20.3-22.8,37.6-22.8c18,0,29.7,5.6,36.9,20.1c5.9-12.8,17.2-20.1,36.8-20.1c27.6,0,42,19.6,42,43.7v91.7h-35.3v-80.5
		c0-18.8-6.4-24.1-19-24.1c-12.3,0-20.6,7.3-20.6,21.4v83.1h-36.3V180.8z"/>
	<path class="st1" d="M222.5,115c0-41.9,26.3-69.4,68.1-69.4c41.5,0,67.3,27.3,67.3,69.4c0,41.9-25.9,69.4-67.3,69.4
		C247.9,184.4,222.5,155.9,222.5,115z M321.2,115c0-26.3-10.2-38.6-30.8-38.6c-20.3,0-30.5,12.3-30.5,38.6s9.9,38.9,30.5,38.9
		C311.1,153.8,321.2,141.2,321.2,115z"/>
	<path class="st1" d="M458,180.8l-0.3-20.1c-6.9,17.3-22.8,23.6-35.9,23.6c-33.3,0-57.1-26.5-57.1-70.8c0-39.6,20.1-68.1,54.1-68.1
		c16,0,31.7,5.9,38.3,23.6V0.9h35.7V181H458V180.8z M458.4,115.5c0-25.4-10.8-39.1-28.9-39.1c-17.3,0-28.2,11.3-28.2,38.7
		c0,27.8,11,39.4,28.2,39.4C446.4,154.6,458.4,142.9,458.4,115.5z"/>
	<path class="st1" d="M544.9,49.1V134c0,15,6.8,21.4,23.2,21.4c16.3,0,23.1-6.4,23.1-21.4V49.1h35.3v89.7
		c0,28.2-10.8,45.5-58.4,45.5c-47.7,0-60-17.3-60-45V49.1H544.9z"/>
</g>
<path class="st1" d="M175.6,367.7V187.6H212v180L175.6,367.7L175.6,367.7z"/>
<path class="st1" d="M244,430l21.3-62.3l-48-131.8h40.4l26.3,86.3l27.3-86.3h38.1L279.4,430L244,430L244,430z"/>
<path class="st1" d="M431.1,275.8c-0.3-14.2-11.3-18.3-23.2-18.3c-9.1,0-22.6,1-22.6,12.1c0,26.3,82.8,3,82.8,58.4
	c0,35.1-29.5,43.2-57.8,43.2c-28.9,0-63.8-10.4-63.8-45.9h36.9c0,14.5,14,20.3,26.3,20.3c9.4,0,23.6-2.2,23.6-13.4
	c0-14.5-22.6-15.8-34.8-19c-21.9-5.6-47.3-13.3-47.3-42.2c0-31.3,32.3-38.6,57.6-38.6c31,0,53.6,12.1,55.7,43.3L431.1,275.8
	L431.1,275.8z"/>
<path class="st1" d="M557.1,275.8c-0.3-14.2-11.3-18.3-23.2-18.3c-9.1,0-22.6,1-22.6,12.1c0,26.3,82.8,3,82.8,58.4
	c0,35.1-29.5,43.2-57.8,43.2c-28.9,0-63.8-10.4-63.8-45.9h36.9c0,14.5,14,20.3,26.3,20.3c9.4,0,23.6-2.2,23.6-13.4
	c0-14.5-22.6-15.8-34.8-19c-21.9-5.6-47.3-13.3-47.3-42.2c0-31.3,32.3-38.6,57.6-38.6c31,0,53.6,12.1,55.8,43.3L557.1,275.8
	L557.1,275.8z"/>
<g>
	<path class="st1" d="M614.3,271.5c-9.6,0-17.5-7.8-17.5-17.5c0-9.8,7.8-17.6,17.5-17.6c9.8,0,17.6,7.8,17.6,17.6
		C631.9,263.6,624.1,271.5,614.3,271.5z M614.3,239.1c-8.2,0-14.7,6.7-14.7,14.7s6.7,14.7,14.7,14.7c8.2,0,14.7-6.7,14.7-14.7
		C629,245.6,622.5,239.1,614.3,239.1z M617.8,261.2V257c0-1.7-0.5-2.2-2.6-2.2h-3.7v6.3h-3.3v-16h8.2c3,0,5,1.7,5,4.4
		c0,2.3-1,3.3-2.3,3.8c1.2,0.4,2,1.3,2,3.1v4.6h-3.3V261.2z M616,252.2c1.7,0,2.3-0.9,2.3-2.1c0-1.6-0.9-2.3-2.2-2.3h-4.4v4.3h4.3
		V252.2z"/>
</g>
</svg>
