<?xml version="1.0" encoding="UTF-8"?>
<svg width="20px" height="20px" viewBox="0 0 20 20" version="1.1" xmlns="http://www.w3.org/2000/svg" xmlns:xlink="http://www.w3.org/1999/xlink">
    <title>planet-earth</title>
    <g id="Page-1" stroke="none" stroke-width="1" fill="none" fill-rule="evenodd">
        <g id="Çizgili-İkonsuz-Mobile-Dropdown" transform="translate(-129.000000, -441.000000)" fill="#105268" fill-rule="nonzero">
            <g id="planet-earth" transform="translate(129.000000, 441.000000)">
                <path d="M19.6991447,2.33092809 C19.4099731,1.42223646 19.0180583,0.771601507 19.0014435,0.74425775 C18.9371832,0.638422786 18.8048753,0.583369053 18.6850285,0.610834872 C18.6539978,0.617914968 17.9139044,0.790522418 17.0601947,1.21654793 C15.9076622,1.79149924 15.1025754,2.55907756 14.7316735,3.43590885 C14.4229551,4.16613363 14.3786081,5.05883404 14.5976553,6.04504036 C14.1310959,5.52441035 13.6062624,5.06896589 13.0341498,4.68554295 C12.8594496,4.34069423 12.3975326,3.49169499 11.6753979,2.60436566 C11.4375369,2.31225134 10.9800179,2.67882856 11.2203222,2.97387257 C11.7069172,3.57189519 12.0731767,4.16003013 12.3022416,4.56408295 L9.63128366,4.04381916 L7.09361098,0.585200084 C7.34002373,0.588618085 7.58729167,0.612421779 7.83333791,0.660639573 C8.61338031,0.813227518 9.38389356,1.21020024 10.1238648,1.84032737 C10.4137694,2.08727569 10.790291,1.63781267 10.5041737,1.39428235 C9.68674793,0.698237238 8.82607471,0.257807438 7.94597678,0.0855661751 C6.60249578,-0.177129205 5.03556963,0.16771954 3.41415656,1.08324709 C2.20567117,1.76562032 1.39753015,2.51513224 1.3638118,2.5466264 C1.25569317,2.64757855 1.2384675,2.83092822 1.32899394,2.94884816 C1.44749687,3.19176816 1.89658623,4.06811116 2.64413194,5.01159284 C3.08479176,5.56786739 3.54951865,6.04394173 4.03024955,6.43517718 C3.89366577,6.54955711 3.76074703,6.66918602 3.63210419,6.79504055 C2.94503162,7.46654954 2.41897643,8.25866399 2.07360762,9.12463099 C1.7683099,9.88976791 1.60411617,10.7128882 1.59495357,11.5612771 C1.57980474,12.9486066 1.98210383,14.2866196 2.75860331,15.430907 C3.51714415,16.5485831 4.57756198,17.4067376 5.82514112,17.9124751 C6.17429711,18.0537104 6.39505461,17.5111078 6.04565426,17.3695062 C5.59363284,17.1862786 5.16897703,16.9515373 4.77730659,16.6723624 C4.82739544,16.3947745 4.94357717,15.3957508 4.27947218,14.3615708 C4.18650234,14.2169175 4.46443444,13.6488021 4.63033854,13.3094465 C4.80161799,12.959715 4.97839503,12.5981426 5.06098056,12.2576885 C5.14869717,11.895994 5.04998546,11.5924051 4.77571839,11.3793923 C4.5743856,11.2230202 4.31086933,11.1420876 4.07862806,11.0706764 C3.92775063,11.0242897 3.7567155,10.9717994 3.69563152,10.9208961 C3.56979852,10.8155494 3.36431203,10.4262671 3.19914096,10.1136449 C3.01588903,9.76684306 2.8414332,9.43676485 2.66331234,9.23351774 C3.06414538,8.28234562 3.70797048,7.44067059 4.51427897,6.79674955 C5.25082955,7.29809243 6.09146725,7.6440398 6.98500364,7.71410816 C5.94877508,8.51635449 5.61354622,9.54089088 6.09268892,10.525022 C6.65221814,11.6741922 7.80389544,11.4905984 8.81996629,11.3288552 C8.99576599,11.300779 9.17767406,11.2718484 9.35188558,11.2501198 C9.41724541,11.2419411 9.43691447,11.2597634 9.45010861,11.2713601 C9.67257644,11.469114 9.66597939,12.4135723 9.66121483,13.1032697 C9.65473991,14.0572494 9.64863153,14.9583727 10.0042624,15.4210193 C10.1856818,15.6568592 10.441135,15.7774647 10.7405687,15.7774647 C10.9200334,15.7774647 11.1150135,15.7342518 11.3195226,15.6466053 C12.2038964,15.2681873 13.1232103,14.129271 12.9829615,13.2281477 C12.860427,12.4403057 12.7793075,11.9197977 12.9705003,11.5002419 C13.1472774,11.1119362 13.5746209,10.752439 14.4162359,10.2936987 C14.5170244,10.74719 14.5678463,11.2189919 14.5625931,11.7030008 C14.5446344,13.3551008 13.8837058,14.9013659 12.7017308,16.0567617 C11.3807287,17.3480218 9.52414237,17.9857173 7.68759155,17.7834467 C7.3133911,17.7429194 7.24876426,18.3247066 7.62345338,18.3659664 C9.63372705,18.5871578 11.6662353,17.8889155 13.1117265,16.4757071 C14.4058516,15.2106921 15.1293302,13.5180647 15.1489993,11.7092264 C15.1751432,9.31091035 13.9435681,7.18615393 12.0687787,5.96215459 C12.4561732,5.68615355 12.744734,5.44750602 12.904774,5.3089562 C13.5883037,5.79894655 14.1946232,6.40258439 14.6990547,7.10583166 C15.9099834,8.79443072 16.3902257,10.8529029 16.0515761,12.902464 C15.3521646,17.1333 11.3385808,20.0072022 7.10362873,19.3081053 C5.05230663,18.9696042 3.25582689,17.853393 2.04489814,16.164794 C0.833847236,14.476317 0.353605006,12.4176006 0.692376731,10.3681616 C0.753216387,9.99938709 0.174995475,9.90258529 0.113911467,10.2727026 C-0.250515513,12.4766826 0.266132752,14.6904283 1.56807662,16.5062247 C2.87026483,18.3217769 4.80235101,19.5222167 7.00809338,19.8863525 C7.46939957,19.9624023 7.93119446,20 8.38981294,20 C10.1233762,20 11.8097826,19.462158 13.2468442,18.4332271 C15.0643369,17.1320793 16.2658587,15.2019031 16.6300413,12.997923 C16.8969783,11.3829324 16.6903923,9.76269269 16.0487662,8.29760444 C16.3449014,8.21032413 16.8488442,8.0408905 17.400799,7.7654998 C18.5530871,7.19054847 19.3582961,6.42297014 19.7290758,5.54613886 C20.1002221,4.66906344 20.0898378,3.55724675 19.6991447,2.33092809 L19.6991447,2.33092809 Z M2.68041582,10.3870825 C2.8986078,10.8004127 3.10494946,11.1910378 3.31935423,11.370237 C3.471209,11.4970681 3.68255954,11.5620096 3.90624907,11.6307352 C4.47933895,11.8067606 4.54592047,11.8931864 4.49094491,12.1196269 C4.4235082,12.3980693 4.26078046,12.7305889 4.10355032,13.0520002 C3.80069596,13.6711409 3.51470079,14.2556138 3.78579146,14.6779771 C4.17025401,15.2766101 4.23610255,15.8659658 4.22950546,16.232543 C2.48299241,14.6589342 1.77185276,12.1734599 2.4223971,9.91442613 C2.50864769,10.0621312 2.5992963,10.2337622 2.68041582,10.3870825 L2.68041582,10.3870825 Z M16.8671694,4.62939059 L16.0338617,2.61156779 C16.4393372,2.23266144 16.909806,1.94750512 17.3105169,1.74669941 C17.6518541,1.57555681 17.9765765,1.44762709 18.2370386,1.35692881 L16.8671694,4.62939059 Z M18.7776318,1.58410172 C18.8940579,1.83410178 19.0290535,2.15648955 19.14438,2.52086955 C19.2708238,2.920772 19.3868834,3.41637759 19.4099731,3.93334551 L17.4571184,4.7383994 L18.7776318,1.58410172 Z M15.2717781,3.66405831 C15.358273,3.45971257 15.4700567,3.2702594 15.5991882,3.09533257 L16.5478223,5.3920861 L15.696556,7.42602215 C15.5769536,7.17248205 15.4360939,6.83947416 15.3166137,6.46117815 C15.076798,5.70373168 14.8744879,4.60338961 15.2717781,3.66405831 Z M17.1503547,7.23534829 C16.821845,7.40014327 16.5083621,7.52489915 16.2530311,7.61486498 L17.1364275,5.50463497 L19.3850509,4.5775107 C19.352432,4.82921974 19.2902485,5.07873152 19.1889713,5.31798939 C18.7918033,6.2573207 17.8611278,6.8792691 17.1503547,7.23534829 Z M6.57708484,7.06860018 C6.47348642,7.04833652 6.37123185,7.02355624 6.2704433,6.99535798 L9.51571279,4.61840424 L12.1878924,5.13879013 C11.2144582,5.90514776 8.84549939,7.51269211 6.57708484,7.06860018 Z M3.61121346,5.23546984 C2.91717733,4.48803315 2.40846997,3.6888386 2.11636639,3.17711972 L5.51691136,3.83959548 L3.61121346,5.23546984 Z M4.21179111,1.32641121 L5.63455911,3.26549865 L2.2120239,2.59887248 C2.64291028,2.25890658 3.35417209,1.74853048 4.21179111,1.32641121 Z M6.48289337,3.43078188 L4.75800404,1.07982915 C5.27440798,0.867792938 5.82868398,0.700922802 6.39688713,0.626704033 L8.78307159,3.87865799 L6.48289337,3.43078188 Z M6.30037444,3.9921834 L8.73237188,4.46581633 L5.61110286,6.75182767 C5.02249765,6.48022116 4.49277741,6.08971812 4.02927221,5.65563598 L6.30037444,3.9921834 Z M14.2569289,9.71362043 C13.1998096,10.2763647 12.682184,10.7183814 12.4366264,11.2575661 C12.1728658,11.8365458 12.2695006,12.4580059 12.4032745,13.3181135 C12.4823172,13.8253158 11.8790518,14.769774 11.0886252,15.108031 C10.7961551,15.2331531 10.5878587,15.2183826 10.4692337,15.0639636 C10.2362594,14.760985 10.2426121,13.8439925 10.247621,13.107298 C10.2545846,12.0880107 10.260693,11.2077614 9.83982436,10.8336158 C9.68845829,10.6990943 9.49482207,10.6422095 9.27968431,10.6685767 C9.09533288,10.6915259 8.90829373,10.7213111 8.72760732,10.7501197 C7.6497195,10.9217506 6.97144302,10.9904762 6.62008796,10.2686743 C6.05078533,9.09960658 7.20319562,8.23363955 7.72509712,7.91564631 C7.83138322,7.85094904 7.92997277,7.77465505 8.02159871,7.68969409 C9.28298285,7.5390593 10.4748534,6.99828767 11.5369816,6.32091934 C12.8104603,7.08117344 13.7880483,8.28429875 14.2569289,9.71362043 L14.2569289,9.71362043 Z" id="Shape"></path>
            </g>
        </g>
    </g>
</svg>