<?xml version="1.0" encoding="UTF-8"?>
<svg width="17px" height="18px" viewBox="0 0 17 18" version="1.1" xmlns="http://www.w3.org/2000/svg" xmlns:xlink="http://www.w3.org/1999/xlink">
    <title>phone-call (1)</title>
    <g id="Page-1" stroke="none" stroke-width="1" fill="none" fill-rule="evenodd">
        <g id="Çizgili-İkonsuz-Mobile-Dropdown" transform="translate(-131.000000, -525.000000)" fill="#105268" fill-rule="nonzero" stroke="#EFEFEF" stroke-width="0.25">
            <g id="phone-call-(1)" transform="translate(132.000000, 526.000000)">
                <path d="M12.828925,2.17097548 C11.4288427,0.770906955 9.56726119,0 7.58734851,0 C7.26289719,0 7,0.262972933 7,0.587342763 C7,0.911712594 7.26297551,1.17468553 7.58734851,1.17468553 C9.25353877,1.17460721 10.8200364,1.82342519 11.9982575,3.00163477 C13.176557,4.17984435 13.8253813,5.74640497 13.825303,7.41265724 C13.825303,7.73702707 14.0882002,8 14.4126515,8 C14.7370245,8 15,7.73702707 15,7.41273555 C15,5.43260731 14.2290855,3.571044 12.828925,2.17097548 Z" id="Path"></path>
                <path d="M10.9757422,6.48792187 C10.9757422,6.77076325 11.2050393,7.00006827 11.4879394,7 C11.7707711,7 12,6.77069497 12,6.48785358 C11.9998634,4.56491455 10.4352072,3.00027314 8.5121972,3 C8.51212892,3 8.5121972,3 8.51212892,3 C8.22929719,3 8.00006828,3.22923673 8,3.51207812 C8,3.7949195 8.2292289,4.02422452 8.51206064,4.02429281 C9.87043138,4.02449767 10.9756056,5.12964132 10.9757422,6.48792187 Z" id="Path"></path>
                <path d="M10.1660082,9.86962662 C9.27579821,9.82352714 8.82228324,10.4855841 8.60479229,10.8036082 C8.42265433,11.0698482 8.49086846,11.4332709 8.75710604,11.6154106 C9.02334362,11.7975502 9.38676298,11.7293354 9.56890094,11.4630954 C9.82587199,11.0873691 9.94228766,11.0282652 10.1002081,11.0357408 C10.6056623,11.0951562 12.5964092,12.5539865 12.7957565,13.0101532 C12.845749,13.1444803 12.8438801,13.2761597 12.7902277,13.4363398 C12.5812246,14.056658 12.2352481,14.4925784 11.7895201,14.6969112 C11.366063,14.8910429 10.8469036,14.8734441 10.2884977,14.6462173 C8.20337237,13.7963362 6.38168125,12.610287 4.87411777,11.1209314 C4.87349481,11.1203084 4.87287185,11.1197633 4.87232676,11.1191404 C3.38609966,9.61304255 2.20224183,7.79367077 1.35377015,5.71171888 C1.12646758,5.15284063 1.10886895,4.63359859 1.3029989,4.21021542 C1.50732982,3.76448335 1.94324616,3.41850369 2.56301361,3.20973226 C2.72373732,3.15584571 2.8551819,3.15413255 2.98826176,3.20365834 C3.44605957,3.40370825 4.90479855,5.39439564 4.96366828,5.89417 C4.97207825,6.05801002 4.91250768,6.1743489 4.53709634,6.43085509 C4.27078089,6.61276112 4.20233315,6.97618382 4.38431538,7.24250173 C4.56621973,7.50881963 4.92956122,7.57719014 5.19595454,7.3952841 C5.51413142,7.17802476 6.17602654,6.72575155 6.13008323,5.83249638 C6.07946772,4.89944927 4.26447342,2.42853307 3.39723507,2.10965242 C3.01154489,1.96590305 2.60584211,1.96341119 2.19095068,2.10264406 C1.25744494,2.4170082 0.583246356,2.97752173 0.241241252,3.72352335 C-0.0904850095,4.44725393 -0.0799725575,5.28693403 0.271999908,6.15223361 C1.18004215,8.380271 2.45049143,10.3297648 4.04799478,11.9467505 C4.05188828,11.9507219 4.05585965,11.9546155 4.0599089,11.9584311 C5.6757117,13.5529901 7.62292928,14.821115 9.84798708,15.7280754 C10.2935593,15.9092806 10.7323568,16 11.1519983,16 C11.5471108,16 11.9254033,15.9196374 12.2762856,15.7587565 C13.0223582,15.4168261 13.5827887,14.7426992 13.8973836,13.8085619 C14.0363037,13.3944453 14.0340454,12.9888945 13.8913876,12.6049918 C13.5714197,11.7354094 11.1005263,9.92039833 10.1660082,9.86962662 Z" id="Path"></path>
            </g>
        </g>
    </g>
</svg>