<?xml version="1.0" encoding="UTF-8"?>
<svg width="19px" height="19px" viewBox="0 0 19 19" version="1.1" xmlns="http://www.w3.org/2000/svg" xmlns:xlink="http://www.w3.org/1999/xlink">
    <title>tatami</title>
    <g id="Page-1" stroke="none" stroke-width="1" fill="none" fill-rule="evenodd">
        <g id="Çizgili-İkonsuz-Mobile-Dropdown" transform="translate(-129.000000, -155.000000)" fill="#105268" fill-rule="nonzero">
            <g id="tatami" transform="translate(129.000000, 155.000000)">
                <path d="M18.6289062,0 L0.37109375,0 C0.166138672,0 0,0.166175781 0,0.37109375 L0,18.6289062 C0,18.8338242 0.166138672,19 0.37109375,19 L18.6289062,19 C18.8338613,19 19,18.8338242 19,18.6289062 L19,0.37109375 C19,0.166175781 18.8338613,0 18.6289062,0 Z M0.7421875,0.7421875 L18.2578125,0.7421875 L18.2578125,6.0859375 L6.828125,6.0859375 L6.828125,3.7109375 C6.828125,3.50601953 6.66198633,3.33984375 6.45703125,3.33984375 C6.25207617,3.33984375 6.0859375,3.50601953 6.0859375,3.7109375 L6.0859375,12.171875 L0.7421875,12.171875 L0.7421875,0.7421875 Z M12.171875,6.828125 L12.171875,12.171875 L6.828125,12.171875 L6.828125,6.828125 L12.171875,6.828125 Z M0.7421875,18.2578125 L0.7421875,12.9140625 L12.171875,12.9140625 L12.171875,18.2578125 L0.7421875,18.2578125 Z M18.2578125,18.2578125 L12.9140625,18.2578125 L12.9140625,6.828125 L12.9140625,6.828125 L18.2578125,6.828125 L18.2578125,18.2578125 Z" id="Shape"></path>
                <path d="M6.5,3 C6.77615,3 7,2.77614477 7,2.50009998 L7,2.49970006 C7,2.22365527 6.77615,2 6.5,2 C6.22385,2 6,2.2240052 6,2.50009998 C6,2.77619476 6.22385,3 6.5,3 L6.5,3 Z" id="Path"></path>
            </g>
        </g>
    </g>
</svg>