<?xml version="1.0" encoding="UTF-8"?>
<svg width="18px" height="18px" viewBox="0 0 18 18" version="1.1" xmlns="http://www.w3.org/2000/svg" xmlns:xlink="http://www.w3.org/1999/xlink">
    <title>loupe</title>
    <g id="Page-1" stroke="none" stroke-width="1" fill="none" fill-rule="evenodd">
        <g id="Çizgili-İkonsuz-Mobile-Dropdown" transform="translate(-130.000000, -484.000000)" fill="#105268" fill-rule="nonzero">
            <g id="loupe" transform="translate(130.000000, 484.000000)">
                <path d="M14.679597,3.43917065 C13.1634954,1.84997302 10.8335389,1.60602671 9.10997991,2.56352368 C8.96105587,2.64623721 8.90742595,2.83405428 8.99013754,2.98295096 C9.07284913,3.13190933 9.2606618,3.18547883 9.40955499,3.10279614 C10.9860095,2.22690245 12.9695457,2.5403935 14.2319614,3.86365573 C15.5344993,5.24563778 15.6811721,7.30564253 14.6734908,8.83288211 C13.2854657,10.9411827 10.2875869,11.2588988 8.49016726,9.46109783 C7.27900684,8.2503408 6.92811479,6.29775261 7.8030011,4.70883254 C7.8850959,4.55956577 7.83066415,4.37199543 7.68143172,4.2898987 C7.53219929,4.20786366 7.34466417,4.26223501 7.26250769,4.41147093 C7.24360307,4.4458578 7.20998799,4.50994382 7.17757566,4.57566438 L7.1776065,4.57566438 C6.28054658,6.40430564 6.68867677,8.53249816 8.05400394,9.89733304 C10.124816,11.9686253 13.5838381,11.6098916 15.1885724,9.17237149 C16.3394107,7.42807829 16.1982274,5.05041905 14.679597,3.43917065 Z" id="Path"></path>
                <path d="M16.0466166,1.95334277 C13.4418594,-0.651067382 9.20342911,-0.651172851 6.59856638,1.95337793 C4.25617977,4.29612012 4.00400442,7.96913964 5.91154412,10.5967529 L4.81583115,11.6922217 C4.43167947,11.5083545 3.94589123,11.5676982 3.61507149,11.8985537 L0.515631479,14.9983506 C-0.171566564,15.6850928 -0.172129063,16.7972256 0.515455698,17.4843545 C1.20237249,18.1717295 2.31446824,18.1720107 3.00152566,17.4844248 L6.1014227,14.3849092 C6.43210182,14.0541592 6.49165641,13.5683701 6.30771922,13.1841826 L7.40329157,12.0883623 C10.031498,13.9963271 13.70423,13.7434834 16.0466166,11.4014092 C18.6511278,8.79657714 18.6511278,4.55820996 16.0466166,1.95334277 Z M5.6041384,13.8876592 L2.50417105,16.9872451 C2.09217566,17.3995576 1.42526274,17.3999443 1.01270485,16.9870693 C0.60032274,16.5750029 0.600076647,15.9080889 1.01277516,15.4956709 L4.11228548,12.3958037 C4.24928915,12.2587646 4.47235518,12.2586943 4.60935885,12.3958037 L5.60410324,13.3905498 C5.74121238,13.5275889 5.74121238,13.7506201 5.6041384,13.8876592 Z M5.85276297,12.6446396 L5.3553732,12.147249 L6.35665664,11.14621 C6.43519557,11.2333623 6.51587902,11.318792 6.59853123,11.4014092 C6.68118343,11.4840615 6.76657781,11.5647803 6.85380032,11.6433545 L5.85276297,12.6446396 Z M15.5493323,10.9041592 C13.2192855,13.2338584 9.44498729,13.2536865 7.09574522,10.9041592 C4.74931564,8.55797168 4.76327265,4.78349121 7.09574522,2.45062793 C9.42621389,0.12047168 13.2184769,0.120084961 15.5492972,2.45062793 C17.8796252,4.78127637 17.8796252,8.57354589 15.5493323,10.9041592 Z" id="Shape"></path>
                <path d="M9.03658716,2.9659268 C9.03623717,2.96547685 9.03583718,2.9650769 9.03538718,2.96462696 C9.01583254,2.94512435 8.98417812,2.94512435 8.96462848,2.96462696 C8.94512384,2.98417956 8.94512384,3.01583068 8.96462848,3.03537828 C8.96507847,3.03582823 8.96547847,3.03622818 8.96592846,3.03662813 C8.9855831,3.05488089 9.01628753,3.05443095 9.03538718,3.03537828 C9.05443684,3.01627562 9.05488683,2.98557439 9.03658716,2.9659268 Z" id="Path"></path>
            </g>
        </g>
    </g>
</svg>