<?xml version="1.0" encoding="UTF-8"?>
<svg width="21px" height="20px" viewBox="0 0 21 20" version="1.1" xmlns="http://www.w3.org/2000/svg" xmlns:xlink="http://www.w3.org/1999/xlink">
    <title>link</title>
    <g id="Page-1" stroke="none" stroke-width="1" fill="none" fill-rule="evenodd">
        <g id="Çizgili-İkonsuz-Mobile-Dropdown" transform="translate(-128.000000, -399.000000)" fill="#105268" fill-rule="nonzero" stroke="#FFFFFF" stroke-width="0.25">
            <g id="link" transform="translate(129.000000, 400.000000)">
                <path d="M10.2558607,7.84128696 C10.0428667,8.05086726 10.0428667,8.38698661 10.2558607,8.59656691 C11.1359678,9.46256853 11.1359678,10.8703154 10.2558607,11.7363171 L5.63429337,16.2838141 C4.7541862,17.1498158 3.32350971,17.1498158 2.44340255,16.2838141 L1.74815807,15.5997124 C0.868050904,14.7337108 0.868050904,13.3259639 1.74815807,12.4599623 L6.36972539,7.91246517 C6.58271936,7.70288487 6.58271936,7.36676553 6.36972539,7.15718523 C6.15673141,6.94760492 5.81513731,6.94760492 5.60214334,7.15718523 L0.980576021,11.7046823 C0.349631614,12.3255145 0,13.1519727 0,14.0298373 C0,14.907702 0.34561286,15.7341602 0.980576021,16.3549924 L1.6758205,17.0390941 C2.32685867,17.679698 3.18285332,18 4.03884796,18 C4.8948426,18 5.75083724,17.679698 6.40187542,17.0390941 L11.0234427,12.491597 C12.3255191,11.2103891 12.3255191,9.12249483 11.0234427,7.84128696 C10.8144675,7.63170666 10.4688547,7.63170666 10.2558607,7.84128696 Z" id="Path"></path>
                <path d="M18.0231156,1.64485981 L17.3276382,0.960819554 C16.0251256,-0.320273185 13.9025126,-0.320273185 12.6,0.960819554 L7.97688442,5.50790798 C6.67437186,6.78900072 6.67437186,8.8767074 7.97688442,10.1578001 C8.18994975,10.3673616 8.53165829,10.3673616 8.74472362,10.1578001 C8.95778894,9.94823868 8.95778894,9.61214953 8.74472362,9.40258807 C7.86432161,8.53666427 7.86432161,7.12904385 8.74472362,6.26312006 L13.3678392,1.71603163 C14.2482412,0.850107836 15.679397,0.850107836 16.559799,1.71603163 L17.2552764,2.40007189 C18.1356784,3.26599569 18.1356784,4.6736161 17.2552764,5.5395399 L12.6321608,10.0866283 C12.4190955,10.2961898 12.4190955,10.6322789 12.6321608,10.8418404 C12.7366834,10.9446441 12.8773869,11 13.0140704,11 C13.1507538,11 13.2914573,10.9485981 13.3959799,10.8418404 L18.0190955,6.29475198 C18.6502513,5.67397556 19,4.84759166 19,3.9698059 C19,3.09202013 18.6542714,2.26563623 18.0231156,1.64485981 Z" id="Path"></path>
            </g>
        </g>
    </g>
</svg>