<?xml version="1.0" encoding="UTF-8"?>
<svg width="16px" height="16px" viewBox="0 0 16 16" version="1.1" xmlns="http://www.w3.org/2000/svg" xmlns:xlink="http://www.w3.org/1999/xlink">
    <title>fabric</title>
    <g id="Page-1" stroke="none" stroke-width="1" fill="none" fill-rule="evenodd">
        <g id="Ürünler-İç-Sayfa-Detay" transform="translate(-1149.000000, -271.000000)" fill="#17446E" fill-rule="nonzero">
            <g id="Group-2" transform="translate(1149.000000, 270.298013)">
                <g id="fabric" transform="translate(0.000000, 0.701987)">
                    <path d="M15.9999467,2.36969622 L15.9999467,2.36444624 C15.9999467,2.23991565 15.9503222,2.12047877 15.8621669,2.03254173 L13.9614995,0.136957883 C13.871813,0.0475208506 13.749033,-0.0023538888 13.6230968,8.54711893e-05 C13.4964419,0.00217733753 13.3760057,0.0553333098 13.2891629,0.147551578 L12.3890786,1.10367158 L11.4890256,0.147551578 C11.4004328,0.0534583196 11.2769654,8.54711893e-05 11.1477167,8.54711893e-05 C11.0184681,8.54711893e-05 10.8949694,0.0534895694 10.8064078,0.147551578 L9.90635486,1.10367158 L9.00630187,0.147551578 C8.91770905,0.0534583196 8.79424161,8.54711893e-05 8.66499297,8.54711893e-05 C8.53577559,8.54711893e-05 8.41227689,0.0534583196 8.32368408,0.147551578 L7.42356859,1.10370283 L6.5233906,0.147551578 C6.43479779,0.0534583196 6.31129909,8.54711893e-05 6.18208171,8.54711893e-05 L6.17683176,8.54711893e-05 C6.05230183,8.54711893e-05 5.93286559,0.0496770893 5.84492902,0.137864129 L3.9493553,2.0385417 C3.85991875,2.12822873 3.81060677,2.25029059 3.8125755,2.37694618 C3.81454423,2.50360177 3.86773116,2.62403864 3.95994894,2.71088193 L4.91609509,3.61097098 L3.61110887,4.91621416 L2.71096214,3.96003166 C2.62236932,3.8659384 2.49887063,3.81259493 2.36965324,3.81259493 L2.3644033,3.81259493 C2.23987336,3.81259493 2.12043713,3.86215717 2.03250056,3.95034421 L0.136895585,5.85102178 C0.0474590301,5.94070881 -0.00185294887,6.06277067 5.328099e-05,6.18942626 C0.00208450953,6.31608185 0.0552714475,6.43651872 0.147489223,6.52336201 L1.10363537,7.42345106 L0.147520473,8.32350886 C0.053427717,8.4120709 5.328099e-05,8.53557025 5.328099e-05,8.66478833 C5.328099e-05,8.79403765 0.0533964673,8.91750576 0.147520473,9.00609904 L1.10363537,9.90612559 L0.147520473,10.8062146 C0.053427717,10.8948079 5.328099e-05,11.0183073 5.328099e-05,11.1475254 C5.328099e-05,11.2767434 0.0533964673,11.4002428 0.147489223,11.4888361 L1.10366662,12.3889564 L0.147489223,13.2891704 C0.053427717,13.3777325 5.328099e-05,13.5012318 5.328099e-05,13.6304499 L5.328099e-05,13.6356686 C5.328099e-05,13.7601992 0.0496152573,13.8796361 0.137770576,13.9675731 L2.03843799,15.863157 C2.12637456,15.9508753 2.24546705,16 2.36946574,16 C2.37193447,16 2.37437194,16 2.37684067,16 C2.50349558,15.9979375 2.62393181,15.9447815 2.71077464,15.8525633 L3.61085888,14.8964433 L4.51094312,15.8525633 C4.59953593,15.9466565 4.72300338,16 4.85225201,16 C4.98150064,16 5.10499934,15.9466253 5.1935609,15.8525633 L6.09361389,14.8964433 L6.99369813,15.8525633 C7.08229095,15.9466565 7.20575839,16 7.33500703,16 C7.46422441,16 7.58772311,15.9466565 7.67631592,15.8525633 L8.57643141,14.896412 L9.4766094,15.8525633 C9.56520221,15.9466565 9.68870091,16 9.81791829,16 L9.82316824,16 C9.94769817,16 10.0671344,15.9504378 10.155071,15.8622507 L12.0506447,13.9615732 C12.1400813,13.8718861 12.1893932,13.7498243 12.1874245,13.6231687 C12.1854558,13.4965131 12.1322688,13.3760762 12.0400511,13.2892329 L11.0839049,12.3891439 L12.3888911,11.0839007 L13.2890691,12.0400519 C13.3776619,12.1341452 13.5011606,12.1874887 13.630378,12.1874887 L13.635628,12.1874887 C13.7601579,12.1874887 13.8795941,12.1379264 13.9675307,12.0497394 L15.8631044,10.1490618 C15.952541,10.0593748 16.0018529,9.93731293 15.9999467,9.81065734 C15.9979155,9.68400175 15.9447286,9.56356488 15.8525108,9.47672158 L14.8963646,8.57663254 L15.8524795,7.67657474 C15.9466035,7.5880127 15.9999467,7.4644821 15.9999467,7.33526402 C15.9999467,7.2060147 15.9466035,7.08254659 15.8524795,6.99395331 L14.8963646,6.09392676 L15.8524795,5.19383771 C15.9466035,5.10527567 15.9999467,4.98174507 15.9999467,4.85252699 C15.9999467,4.72330892 15.9466035,4.59980957 15.8525108,4.51121628 L14.8963334,3.61109598 L15.8525108,2.71088193 C15.946541,2.62241365 15.9999467,2.49891429 15.9999467,2.36969622 L15.9999467,2.36969622 Z M9.83010566,14.8604747 L8.91770905,13.8912923 C8.82911624,13.797199 8.70561754,13.7438555 8.57640016,13.7438555 C8.44715153,13.7438555 8.32368408,13.797199 8.23509127,13.8912923 L7.33497578,14.8474123 L6.43489154,13.8912923 C6.34629872,13.797199 6.22283128,13.7438555 6.09358264,13.7438555 C5.96433401,13.7438555 5.84086656,13.7972303 5.75227375,13.8912923 L4.85222076,14.8474123 L3.95213652,13.8912923 C3.86354371,13.797199 3.74007626,13.7438555 3.61082763,13.7438555 C3.48157899,13.7438555 3.35811155,13.797199 3.26951873,13.8912923 L2.35884086,14.8586935 L1.13957249,13.6426998 L2.10874975,12.7302671 C2.20284251,12.641705 2.25618569,12.5182057 2.25618569,12.3889876 C2.25618569,12.2597695 2.20284251,12.1362702 2.10874975,12.0476769 L1.1526661,11.1475254 L2.108781,10.2474363 C2.202905,10.1588743 2.25624819,10.0353437 2.25624819,9.90612559 C2.25624819,9.77687627 2.202905,9.65340816 2.108781,9.56481487 L1.1526661,8.66478833 L2.108781,7.76473053 C2.202905,7.67616849 2.25624819,7.55263789 2.25624819,7.42341981 C2.25624819,7.29420174 2.202905,7.17070238 2.10881225,7.0821091 L1.14141622,6.1713951 L2.35740337,4.95212022 L3.26979998,5.92130266 C3.3583928,6.01539592 3.48189149,6.06873939 3.61110887,6.06873939 C3.74035751,6.06873939 3.86382495,6.01539592 3.95241777,5.92130266 L4.85253326,4.96518266 L5.7526175,5.92130266 C5.84121031,6.01539592 5.96467776,6.06873939 6.09392639,6.06873939 C6.22317502,6.06873939 6.34664247,6.01536467 6.43523528,5.92130266 L7.33528827,4.96518266 L8.23537251,5.92130266 C8.32396533,6.01539592 8.44743277,6.06873939 8.57668141,6.06873939 C8.70593004,6.06873939 8.82939749,6.01539592 8.9179903,5.92130266 L9.82866818,4.95390147 L11.0479365,6.16989511 L10.0787593,7.08232784 C9.98466653,7.17088988 9.93132334,7.29438924 9.93132334,7.42360731 C9.93132334,7.55282539 9.98466653,7.67632474 10.0787593,7.76491803 L11.0349054,8.66503832 L10.0787905,9.56512737 C9.98466653,9.65368941 9.93132334,9.77722001 9.93132334,9.90643809 C9.93132334,10.0356874 9.98466653,10.1591555 10.0787905,10.2477488 L11.0349054,11.1477754 L10.0787905,12.0478331 C9.98466653,12.1363952 9.93132334,12.2599258 9.93132334,12.3891439 C9.93132334,12.5183619 9.98466653,12.6418613 10.0787593,12.7304546 L11.0461553,13.6411686 L9.83010566,14.8604747 Z M13.8911565,3.95250045 L14.8473026,4.85262074 L13.8911878,5.75270979 C13.7970637,5.84127183 13.7437206,5.96480243 13.7437206,6.09402051 C13.7437206,6.22326983 13.7970637,6.34673794 13.8911878,6.43533122 L14.8473026,7.33535777 L13.8911878,8.23541557 C13.7970637,8.32397761 13.7437206,8.44750821 13.7437206,8.57672629 C13.7437206,8.70594436 13.7970637,8.82944372 13.8911565,8.918037 L14.8585525,9.82875099 L13.6425654,11.0480259 L12.7301688,10.0788434 C12.641576,9.98475018 12.5180773,9.93140671 12.3888599,9.93140671 C12.2596112,9.93140671 12.1361438,9.98475018 12.047551,10.0788434 L11.6808049,10.4684039 L11.0838737,9.90650059 L12.0399886,9.00641154 C12.1341126,8.9178495 12.1874558,8.7943189 12.1874558,8.66510082 C12.1874558,8.53588275 12.1341126,8.41238339 12.0400198,8.32379011 L11.0838424,7.42366981 L12.0400198,6.52345576 C12.1341126,6.43489373 12.1874558,6.31139437 12.1874558,6.1821763 L12.1874558,6.17695757 C12.1874558,6.05242698 12.1378938,5.9329901 12.0497385,5.84505306 L10.149071,3.94946921 C10.0593845,3.86003218 9.93644829,3.81034494 9.81066837,3.81268868 C9.68401346,3.81468867 9.56357723,3.86784464 9.4767344,3.96006291 L8.57665016,4.91618291 L7.67656592,3.96006291 C7.5879731,3.86596965 7.46450566,3.81262618 7.33525702,3.81262618 C7.20600839,3.81262618 7.08250969,3.8660009 6.99394813,3.96006291 L6.09389514,4.91618291 L5.53171358,4.31899853 L5.92124072,3.95231295 C6.01536472,3.86375091 6.06870791,3.74022031 6.06870791,3.61100223 C6.06870791,3.48178416 6.01536472,3.3582848 5.92127196,3.26969151 L4.95387594,2.35897752 L6.16986309,1.13970264 L7.0822597,2.10888508 C7.17085251,2.20297834 7.29435121,2.25632181 7.42356859,2.25632181 C7.55281723,2.25632181 7.67628467,2.20297834 7.76487748,2.10888508 L8.66499297,1.15276508 L9.56507721,2.10888508 C9.65367003,2.20297834 9.77713747,2.25632181 9.90638611,2.25632181 C10.0356347,2.25632181 10.1591022,2.20294709 10.247695,2.10888508 L11.147748,1.15276508 L12.0478322,2.10888508 C12.136425,2.20297834 12.2598925,2.25632181 12.3891411,2.25632181 C12.5183898,2.25632181 12.6418572,2.20297834 12.73045,2.10888508 L13.6411279,1.14148388 L14.8603963,2.35747753 L13.891219,3.26991026 C13.7971262,3.3584723 13.7437831,3.48197166 13.7437831,3.61118973 C13.7437831,3.74040781 13.7970637,3.86390716 13.8911565,3.95250045 L13.8911565,3.95250045 Z" id="Shape"></path>
                </g>
            </g>
        </g>
    </g>
</svg>