<?xml version="1.0" encoding="UTF-8"?>
<svg width="18px" height="18px" viewBox="0 0 18 18" version="1.1" xmlns="http://www.w3.org/2000/svg" xmlns:xlink="http://www.w3.org/1999/xlink">
    <title>phone-solid</title>
    <g id="Page-1" stroke="none" stroke-width="1" fill="none" fill-rule="evenodd">
        <g id="Ürünler-İç-Sayfa-Detay" transform="translate(-1146.000000, -214.000000)" fill-rule="nonzero" stroke="#FFFFFF">
            <g id="Group" transform="translate(1147.000000, 214.000000)">
                <g id="phone-solid" transform="translate(8.000000, 8.701987) scale(-1, 1) translate(-8.000000, -8.701987) translate(0.000000, 0.701987)">
                    <path d="M15.4187618,0.769071689 L12.1688279,0.0190875295 C11.8157101,-0.0621607545 11.4532175,0.122210351 11.3094704,0.453453355 L9.80950094,3.95337943 C9.67825361,4.25962297 9.76575183,4.61899038 10.0251215,4.82836095 L11.918833,6.37832822 C10.7938559,8.77515259 8.8282709,10.7688605 6.38144567,11.9157113 L4.83147721,10.0220013 C4.61898153,9.76263174 4.26273878,9.67513359 3.95649501,9.80638081 L0.456566206,11.3063491 C0.122198008,11.453221 -0.0621732416,11.8157134 0.0190751056,12.1688309 L0.769059848,15.4187623 C0.847183259,15.7562551 1.14717716,16 1.50029497,16 C9.50325717,16 16,9.51576195 16,1.50030624 C16,1.15031364 15.7593799,0.847195039 15.4187618,0.769071689 Z" id="Path"></path>
                </g>
            </g>
        </g>
    </g>
</svg>