<?xml version="1.0" encoding="UTF-8"?>
<svg width="18px" height="17px" viewBox="0 0 18 17" version="1.1" xmlns="http://www.w3.org/2000/svg" xmlns:xlink="http://www.w3.org/1999/xlink">
    <title>Group 3</title>
    <g id="Page-1" stroke="none" stroke-width="1" fill="none" fill-rule="evenodd">
        <g id="Ürünler-İç-Sayfa-Detay" transform="translate(-1121.000000, -327.000000)" fill="#000000" fill-rule="nonzero" stroke="#17446E" stroke-width="0.4">
            <g id="Group-4" transform="translate(1122.000000, 326.000000)">
                <g id="Group-3" transform="translate(0.000000, 1.701987)">
                    <path d="M15.9535,7.1325625 C15.9535,7.1325 15.9535,7.1324375 15.9535,7.132375 C15.5171562,3.08878125 12.0912187,0 8,0 C3.57840625,0 0,3.57803125 0,8 C0,8.49471875 0.0455,8.990125 0.13525,9.472375 C0.1589375,9.59959375 0.28121875,9.6836875 0.4085625,9.65990625 C0.5358125,9.63621875 0.61978125,9.513875 0.59609375,9.386625 C0.51159375,8.9325625 0.46875,8.46603125 0.46875,8 C0.46875,3.84725 3.84725,0.46875 8,0.46875 C11.8557187,0.46875 15.074625,3.3551875 15.4874375,7.1826875 C15.4874375,7.18275 15.4874375,7.1828125 15.4874687,7.182875 C15.5165312,7.4523125 15.53125,7.72725 15.53125,8 C15.53125,12.15275 12.15275,15.53125 8,15.53125 C4.76559375,15.53125 1.8975,13.473875 0.863125,10.41175 C0.82171875,10.2890937 0.6886875,10.2233437 0.5660625,10.2647187 C0.4434375,10.306125 0.37759375,10.439125 0.41903125,10.5617812 C1.5178125,13.8145312 4.564375,16 8,16 C12.4215937,16 16,12.4219687 16,8 C16,7.7105 15.984375,7.41865625 15.9535,7.1325625 Z" id="Path"></path>
                    <path d="M6.34798592,3.6198625 L7.00654059,4.04505774 C7.11893259,4.11766413 7.26188897,4.07313032 7.32588997,3.94568857 C7.38985974,3.81824683 7.35064742,3.656148 7.23825543,3.58357701 L6.57970076,3.15838177 C6.41922996,3.05476455 6.23880958,3 6.05795212,3 C5.47460643,3 5,3.53819358 5,4.19972246 L5,11.8002775 C5,12.4618064 5.47460643,13 6.05795212,13 C6.23887202,13 6.4192924,12.9452354 6.57970076,12.8416182 L12.4660756,9.04134069 C12.8004105,8.82550393 13,8.43620478 13,7.9999292 C13,7.56368901 12.8003793,7.17438987 12.4660756,6.95862391 L8.18781171,4.19660722 C8.07541971,4.12407162 7.93249456,4.16853463 7.86846234,4.29597638 C7.80449256,4.42341813 7.84370488,4.58551695 7.95609688,4.65808795 L12.234392,7.42010464 C12.4205256,7.54028929 12.5316688,7.75704647 12.5316688,7.9999646 C12.5316688,8.24291813 12.4205256,8.45971071 12.2343607,8.57993076 L6.3479547,12.3802437 C6.25672986,12.4391501 6.15916736,12.4690281 6.05795212,12.4690281 C5.77438087,12.4690281 5.46829999,12.2133658 5.46829999,11.8003129 L5.46829999,4.19975786 C5.46833121,3.78670499 5.77438087,3.53104269 6.05795212,3.53104269 C6.15913614,3.53104269 6.25669864,3.5609207 6.34798592,3.6198625 Z" id="Path"></path>
                </g>
            </g>
        </g>
    </g>
</svg>