<svg xmlns="http://www.w3.org/2000/svg" xmlns:xlink="http://www.w3.org/1999/xlink" width="20" height="20" viewBox="0 0 20 20">
  <defs>
    <clipPath id="clip-path">
      <path id="Path_150" data-name="Path 150" d="M19.942-11.084h0A10,10,0,0,0,10-20,9.994,9.994,0,0,0,0-10,10.085,10.085,0,0,0,.169-8.16a.293.293,0,0,0,.342.234.293.293,0,0,0,.234-.342A9.5,9.5,0,0,1,.586-10,9.425,9.425,0,0,1,10-19.414a9.392,9.392,0,0,1,9.359,8.392h0A9.565,9.565,0,0,1,19.414-10,9.425,9.425,0,0,1,10-.586a9.409,9.409,0,0,1-8.921-6.4.293.293,0,0,0-.371-.184A.293.293,0,0,0,.524-6.8,9.994,9.994,0,0,0,10,0,9.994,9.994,0,0,0,20-10,10.144,10.144,0,0,0,19.942-11.084Z" fill="none"/>
    </clipPath>
    <clipPath id="clip-path-2">
      <path id="Path_149" data-name="Path 149" d="M-339,2603H1101V-87H-339Z" fill="none"/>
    </clipPath>
    <clipPath id="clip-path-3">
      <path id="Path_153" data-name="Path 153" d="M7.557-15.256l.836.51a.287.287,0,0,0,.405-.119.331.331,0,0,0-.111-.435l-.836-.51A1.273,1.273,0,0,0,7.189-16a1.4,1.4,0,0,0-1.343,1.44V-5.44A1.4,1.4,0,0,0,7.189-4a1.272,1.272,0,0,0,.662-.19l7.471-4.56A1.443,1.443,0,0,0,16-10a1.443,1.443,0,0,0-.678-1.25l-5.43-3.314a.287.287,0,0,0-.405.119.331.331,0,0,0,.111.435l5.43,3.314a.8.8,0,0,1,.377.7.8.8,0,0,1-.377.7L7.557-4.744a.7.7,0,0,1-.368.107.777.777,0,0,1-.748-.8V-14.56a.777.777,0,0,1,.748-.8A.7.7,0,0,1,7.557-15.256Z" fill="none"/>
    </clipPath>
  </defs>
  <g id="Group_114" data-name="Group 114" transform="translate(0 20)">
    <g id="Group_111" data-name="Group 111" clip-path="url(#clip-path)">
      <g id="Group_110" data-name="Group 110" clip-path="url(#clip-path-2)">
        <path id="Path_148" data-name="Path 148" d="M-1-21H21V1H-1Z"/>
      </g>
    </g>
    <g id="Group_113" data-name="Group 113" clip-path="url(#clip-path-3)">
      <g id="Group_112" data-name="Group 112" clip-path="url(#clip-path-2)">
        <path id="Path_151" data-name="Path 151" d="M4.846-17H17V-3H4.846Z"/>
      </g>
    </g>
  </g>
</svg>
