<svg xmlns="http://www.w3.org/2000/svg" xmlns:xlink="http://www.w3.org/1999/xlink" width="100" height="100" viewBox="0 0 100 100">
  <defs>
    <clipPath id="clip-path">
      <path id="Path_14" data-name="Path 14" d="M98.5-88.345a40.221,40.221,0,0,0-3.489-7.933,1.5,1.5,0,0,0-1.582-.667A40.28,40.28,0,0,0,85.3-93.917c-5.763,2.875-9.788,6.713-11.643,11.1-1.544,3.651-1.765,8.115-.67,13.046a41.566,41.566,0,0,0-7.818-6.8,60.5,60.5,0,0,0-6.794-10.406A1.466,1.466,0,0,0,56.1-85.131a58.651,58.651,0,0,1,5.41,7.951l-13.355-2.6L35.468-97.074a20.7,20.7,0,0,1,3.7.377,25.327,25.327,0,0,1,11.453,5.9,1.466,1.466,0,0,0,1.9-2.23A28.212,28.212,0,0,0,39.73-99.572c-6.717-1.313-14.552.411-22.659,4.988A58.531,58.531,0,0,0,6.819-87.267a1.549,1.549,0,0,0-.174,2.011,59.765,59.765,0,0,0,6.576,10.314,45.825,45.825,0,0,0,6.931,7.118q-1.024.858-1.991,1.8a33.755,33.755,0,0,0-7.792,11.648A33.8,33.8,0,0,0,7.975-42.194a33.639,33.639,0,0,0,5.818,19.348A33.845,33.845,0,0,0,29.126-10.438a1.466,1.466,0,0,0,1.1-2.715,30.959,30.959,0,0,1-6.342-3.486A16.5,16.5,0,0,0,21.4-28.192c-.465-.723.925-3.564,1.754-5.261A27.453,27.453,0,0,0,25.3-38.712,4.006,4.006,0,0,0,23.879-43.1a10.824,10.824,0,0,0-3.485-1.544,7.5,7.5,0,0,1-1.915-.749A19.526,19.526,0,0,1,16-49.432a25.04,25.04,0,0,0-2.679-4.4,31.154,31.154,0,0,1,9.255-12.184,25.655,25.655,0,0,0,12.354,4.587c-5.181,4.011-6.857,9.134-4.462,14.055,2.8,5.746,8.556,4.828,13.636,4.019.879-.14,1.789-.285,2.66-.394.327-.041.425.048.491.106,1.112.989,1.079,5.711,1.056,9.16-.032,4.77-.063,9.276,1.715,11.589A4.477,4.477,0,0,0,53.7-21.113a7.4,7.4,0,0,0,2.895-.654c4.422-1.892,9.018-7.587,8.317-12.092C64.3-37.8,63.9-40.4,64.853-42.5c.884-1.942,3.021-3.739,7.229-6.033a30.9,30.9,0,0,1,.732,7.047,30.71,30.71,0,0,1-9.3,21.769,31.147,31.147,0,0,1-25.071,8.633,1.466,1.466,0,0,0-.321,2.913,34.1,34.1,0,0,0,27.441-9.451A33.619,33.619,0,0,0,75.745-41.454a33.857,33.857,0,0,0-15.4-28.735c1.937-1.38,3.38-2.573,4.18-3.266A39,39,0,0,1,73.5-64.471a38.6,38.6,0,0,1,6.763,28.983A38.956,38.956,0,0,1,35.518-3.459,38.666,38.666,0,0,1,10.224-19.176,38.6,38.6,0,0,1,3.462-48.159,1.467,1.467,0,0,0,.57-48.636,41.514,41.514,0,0,0,7.84-17.469a41.59,41.59,0,0,0,27.2,16.9A42.458,42.458,0,0,0,41.949,0,41.562,41.562,0,0,0,66.234-7.834,41.533,41.533,0,0,0,83.15-35.01a41.493,41.493,0,0,0-2.906-23.5A42.243,42.243,0,0,0,87-61.173c5.761-2.875,9.787-6.713,11.641-11.1s1.8-9.944-.15-16.076ZM13.4-48.065c1.091,2.067,2.123,4.02,3.195,4.916a8.412,8.412,0,0,0,2.934,1.3c2.865.88,3.2,1.312,2.923,2.444a25.559,25.559,0,0,1-1.937,4.662c-1.514,3.1-2.944,6.018-1.589,8.13a13.925,13.925,0,0,1,2.219,7.773,31.206,31.206,0,0,1-9.036-31.591c.431.739.884,1.6,1.29,2.363ZM84.336-76.853,80.169-86.942a27.44,27.44,0,0,1,6.383-4.324,39.15,39.15,0,0,1,4.633-1.949Zm9.552-15.226A39.274,39.274,0,0,1,95.722-87.4a27.989,27.989,0,0,1,1.328,7.062l-9.764,4.025ZM76.359-81.68A13.95,13.95,0,0,1,78-84.523L82.739-73.04,78.483-62.87a38.878,38.878,0,0,1-1.9-4.824C75.384-71.481,74.372-76.983,76.359-81.68Zm9.393,17.856a38.966,38.966,0,0,1-4.487,1.9l4.417-10.551,11.243-4.636a14.124,14.124,0,0,1-.98,3.7C93.959-68.713,89.306-65.6,85.752-63.823Zm-52.866-.834c-.518-.1-1.029-.225-1.533-.366L47.579-76.908l13.361,2.6C56.072-70.474,44.228-62.437,32.885-64.657ZM18.056-73.823a57.034,57.034,0,0,1-7.474-10.292l17,3.312Zm3-19.545,7.114,9.7L11.06-87.006A57.8,57.8,0,0,1,21.059-93.368ZM32.414-82.846,23.79-94.6a33,33,0,0,1,8.194-2.266l11.931,16.26ZM31.5-80.039l12.16,2.368L28.056-66.241a30.334,30.334,0,0,1-7.909-5.481ZM71.285-51.432c-5.286,2.814-7.874,5.024-9.1,7.72-1.319,2.895-.836,6-.167,10.3.4,2.536-2.621,7.258-6.573,8.95-1.462.626-2.5.552-3.1-.22-1.165-1.515-1.133-6.1-1.108-9.783.035-5.1.065-9.5-2.039-11.368a3.458,3.458,0,0,0-2.8-.825c-.922.115-1.857.264-2.76.408-5.389.858-8.781,1.2-10.538-2.407-2.847-5.845,2.916-10.175,5.525-11.765a9.286,9.286,0,0,0,1.483-1.13c6.307-.753,12.266-3.457,17.577-6.844a31.1,31.1,0,0,1,13.6,16.964Z" fill="none"/>
    </clipPath>
  </defs>
  <g id="Group_40" data-name="Group 40" transform="translate(0 100)" clip-path="url(#clip-path)">
    <path id="Path_13" data-name="Path 13" d="M-1-101H101V1H-1Z" fill="#105167"/>
  </g>
</svg>
