<svg xmlns="http://www.w3.org/2000/svg" xmlns:xlink="http://www.w3.org/1999/xlink" width="105" height="86" viewBox="0 0 105 86">
  <defs>
    <clipPath id="clip-path">
      <rect id="Rectangle_18" data-name="Rectangle 18" width="105" height="86" transform="translate(1360 856)" fill="#fff" stroke="#707070" stroke-width="1"/>
    </clipPath>
    <clipPath id="clip-path-2">
      <path id="Path_14" data-name="Path 14" d="M43.041,0h-.067A43.161,43.161,0,0,1,0-43.061,42.627,42.627,0,0,1,12.52-73.42,42.449,42.449,0,0,1,42.784-86h.068a43.169,43.169,0,0,1,6.056.437,1.971,1.971,0,0,1,1.667,2.232,1.967,1.967,0,0,1-2.225,1.672,39.224,39.224,0,0,0-5.5-.4h-.062A38.548,38.548,0,0,0,15.3-70.631,38.7,38.7,0,0,0,3.932-43.067,39.215,39.215,0,0,0,42.98-3.944h.061a38.8,38.8,0,0,0,29.63-13.731,1.725,1.725,0,0,0,.272-.66,3.992,3.992,0,0,0-.735-3.444,4.189,4.189,0,0,0-3.33-1.638h-6.07A10.66,10.66,0,0,1,52.176-34.081,10.661,10.661,0,0,1,62.644-44.745a14.776,14.776,0,0,0,11.138-8.639A14.823,14.823,0,0,0,72.637-67.55a21.738,21.738,0,0,0-3.21-3.971,39.7,39.7,0,0,0-3.936-3.23,1.976,1.976,0,0,1-.455-2.751,1.962,1.962,0,0,1,2.743-.456,43.655,43.655,0,0,1,4.328,3.551,25.636,25.636,0,0,1,3.818,4.695,18.762,18.762,0,0,1,1.45,17.932A18.7,18.7,0,0,1,63.11-40.825a1.957,1.957,0,0,1-.3.023,6.718,6.718,0,0,0-6.7,6.721,6.718,6.718,0,0,0,6.7,6.721h6.07a8.091,8.091,0,0,1,6.434,3.16,7.92,7.92,0,0,1,1.441,6.837,5.527,5.527,0,0,1-1.089,2.245A42.725,42.725,0,0,1,43.041,0Z" fill="none"/>
    </clipPath>
    <clipPath id="clip-path-3">
      <path id="Path_18" data-name="Path 18" d="M-1120-2737H320V1474H-1120Z" fill="none"/>
    </clipPath>
    <clipPath id="clip-path-4">
      <path id="Path_50" data-name="Path 50" d="M58.789-78.794A1.979,1.979,0,0,1,57.4-82.16a1.975,1.975,0,0,1,2.78,0A1.98,1.98,0,0,1,58.789-78.794Z" fill="none"/>
    </clipPath>
    <clipPath id="clip-path-6">
      <path id="Path_48" data-name="Path 48" d="M53.532-59.518a8.428,8.428,0,0,1-5.623-2.142A8.449,8.449,0,0,1,45.076-67.5a8.416,8.416,0,0,1,2.113-6.13,8.45,8.45,0,0,1,11.937-.693h0a8.448,8.448,0,0,1,2.832,5.837,8.413,8.413,0,0,1-2.114,6.13,8.409,8.409,0,0,1-6.313,2.835Zm-.032-13a4.49,4.49,0,0,0-3.372,1.513A4.489,4.489,0,0,0,49-67.736a4.524,4.524,0,0,0,1.518,3.126,4.521,4.521,0,0,0,6.387-.364,4.489,4.489,0,0,0,1.127-3.271,4.526,4.526,0,0,0-1.518-3.126A4.523,4.523,0,0,0,53.5-72.519Z" fill="none"/>
    </clipPath>
    <clipPath id="clip-path-8">
      <path id="Path_46" data-name="Path 46" d="M32.753-59.795A8.5,8.5,0,0,1,24.3-67.777,8.413,8.413,0,0,1,26.409-73.9a8.372,8.372,0,0,1,5.825-2.827h0a8.5,8.5,0,0,1,8.946,7.968,8.416,8.416,0,0,1-2.111,6.128,8.372,8.372,0,0,1-5.825,2.827C33.08-59.8,32.916-59.795,32.753-59.795Zm-.294-13a4.471,4.471,0,0,0-3.111,1.509,4.489,4.489,0,0,0-1.125,3.269,4.556,4.556,0,0,0,4.8,4.269,4.473,4.473,0,0,0,3.111-1.509,4.489,4.489,0,0,0,1.126-3.27A4.553,4.553,0,0,0,32.459-72.794Z" fill="none"/>
    </clipPath>
    <clipPath id="clip-path-10">
      <path id="Path_44" data-name="Path 44" d="M17.907-45.276a8.431,8.431,0,0,1-5.623-2.141,8.449,8.449,0,0,1-2.832-5.837,8.415,8.415,0,0,1,2.114-6.13A8.45,8.45,0,0,1,23.5-60.078a8.449,8.449,0,0,1,2.832,5.837,8.414,8.414,0,0,1-2.113,6.13,8.408,8.408,0,0,1-6.313,2.834Zm-.031-13A4.491,4.491,0,0,0,14.5-56.764h0a4.49,4.49,0,0,0-1.127,3.271,4.524,4.524,0,0,0,1.518,3.126,4.523,4.523,0,0,0,6.388-.364A4.49,4.49,0,0,0,22.409-54a4.525,4.525,0,0,0-1.517-3.126,4.521,4.521,0,0,0-3.016-1.149Z" fill="none"/>
    </clipPath>
    <clipPath id="clip-path-12">
      <path id="Path_42" data-name="Path 42" d="M17.687-24.454a8.5,8.5,0,0,1-8.454-7.982h0a8.417,8.417,0,0,1,2.111-6.128,8.372,8.372,0,0,1,5.824-2.827,8.5,8.5,0,0,1,8.947,7.968A8.417,8.417,0,0,1,24-27.295a8.373,8.373,0,0,1-5.824,2.826q-.247.014-.492.014Zm-4.529-8.22a4.554,4.554,0,0,0,4.8,4.268,4.471,4.471,0,0,0,3.111-1.508,4.491,4.491,0,0,0,1.126-3.27,4.553,4.553,0,0,0-4.8-4.269,4.472,4.472,0,0,0-3.11,1.509,4.491,4.491,0,0,0-1.126,3.27Z" fill="none"/>
    </clipPath>
    <clipPath id="clip-path-14">
      <path id="Path_40" data-name="Path 40" d="M32.227-9.538A8.429,8.429,0,0,1,26.6-11.68a8.45,8.45,0,0,1-2.832-5.837,8.416,8.416,0,0,1,2.113-6.13,8.451,8.451,0,0,1,11.936-.693A8.45,8.45,0,0,1,40.653-18.5a8.414,8.414,0,0,1-2.113,6.13,8.41,8.41,0,0,1-6.313,2.834Zm-3.013-5.091a4.522,4.522,0,0,0,6.387-.364,4.488,4.488,0,0,0,1.127-3.27,4.527,4.527,0,0,0-1.517-3.126,4.523,4.523,0,0,0-6.388.364A4.49,4.49,0,0,0,27.7-17.755,4.525,4.525,0,0,0,29.214-14.629Z" fill="none"/>
    </clipPath>
    <clipPath id="clip-path-16">
      <path id="Path_38" data-name="Path 38" d="M100.4-23.224a9.809,9.809,0,0,0-3.03-4.315,88.811,88.811,0,0,0,1.071-9.98c.119-2.15.18-8.637.18-10.933a127.579,127.579,0,0,0-1.693-21.071C95.514-77.568,93.739-81,91-81s-4.514,3.432-5.933,11.476a127.557,127.557,0,0,0-1.694,21.071c0,2.294.062,8.781.181,10.933a90.219,90.219,0,0,0,1.072,9.98A9.8,9.8,0,0,0,81.6-23.224a10.431,10.431,0,0,0-.6,3.486,14.431,14.431,0,0,0,.126,1.9c.928,7.038,6.672,11.9,8.411,13.221.235.179.368.27.368.27A1.929,1.929,0,0,0,91-4a1.91,1.91,0,0,0,1.067-.325c.365-.245,8.931-6.1,8.931-15.413A10.433,10.433,0,0,0,100.4-23.224ZM87.447-37.746c-.113-2.045-.174-8.513-.174-10.706a127.737,127.737,0,0,1,1.4-18.944c.869-5.517,1.792-7.978,2.332-9.025.54,1.047,1.462,3.508,2.332,9.025a127.742,127.742,0,0,1,1.4,18.944c0,2.194-.061,8.663-.174,10.706-.164,2.966-.447,5.8-.826,8.315a9.856,9.856,0,0,0-2.621-.354h-.211a9.855,9.855,0,0,0-2.621.354C87.894-31.944,87.612-34.781,87.447-37.746ZM91.012-8.511c-1.8-1.556-5.408-5.2-6.023-9.86a10.333,10.333,0,0,1-.091-1.366,6.362,6.362,0,0,1,.362-2.126,5.956,5.956,0,0,1,5.633-3.927h.211a5.957,5.957,0,0,1,5.633,3.927,6.368,6.368,0,0,1,.362,2.127c0,5.407-4.084,9.529-6.088,11.226Z" fill="none"/>
    </clipPath>
  </defs>
  <g id="Mask_Group_1" data-name="Mask Group 1" transform="translate(-1360 -856)" clip-path="url(#clip-path)">
    <g id="Group_40" data-name="Group 40" transform="translate(1360 942)" clip-path="url(#clip-path-2)">
      <path id="Path_13" data-name="Path 13" d="M-1-87H80.973V1H-1Z" fill="#105167"/>
    </g>
    <path id="Path_15" data-name="Path 15" d="M-1120-2737H320V1474H-1120Z" transform="translate(1360 942)" fill="none"/>
    <g id="Group_43" data-name="Group 43" transform="translate(1360 942)" clip-path="url(#clip-path-3)">
      <g id="Group_62" data-name="Group 62" clip-path="url(#clip-path-4)">
        <path id="Path_49" data-name="Path 49" d="M55.165-83.926h7.246v6.142H55.165Z" fill="#105167"/>
      </g>
    </g>
    <g id="Group_45" data-name="Group 45" transform="translate(1360 942)" clip-path="url(#clip-path-3)">
      <g id="Group_61" data-name="Group 61" clip-path="url(#clip-path-6)">
        <path id="Path_47" data-name="Path 47" d="M43.94-78.428H63.095v19.909H43.94Z" fill="#105167"/>
      </g>
    </g>
    <g id="Group_47" data-name="Group 47" transform="translate(1360 942)" clip-path="url(#clip-path-3)">
      <g id="Group_60" data-name="Group 60" clip-path="url(#clip-path-8)">
        <path id="Path_45" data-name="Path 45" d="M23.161-78H42.316v19.206H23.161Z" fill="#105167"/>
      </g>
    </g>
    <g id="Group_49" data-name="Group 49" transform="translate(1360 942)" clip-path="url(#clip-path-3)">
      <g id="Group_59" data-name="Group 59" clip-path="url(#clip-path-10)">
        <path id="Path_43" data-name="Path 43" d="M8.315-64.185H27.47v19.908H8.315Z" fill="#105167"/>
      </g>
    </g>
    <g id="Group_51" data-name="Group 51" transform="translate(1360 942)" clip-path="url(#clip-path-3)">
      <g id="Group_58" data-name="Group 58" clip-path="url(#clip-path-12)">
        <path id="Path_41" data-name="Path 41" d="M8.1-42.661H27.251v19.207H8.1Z" fill="#105167"/>
      </g>
    </g>
    <g id="Group_53" data-name="Group 53" transform="translate(1360 942)" clip-path="url(#clip-path-3)">
      <g id="Group_57" data-name="Group 57" clip-path="url(#clip-path-14)">
        <path id="Path_39" data-name="Path 39" d="M22.635-28.446H41.789V-8.538H22.635Z" fill="#105167"/>
      </g>
    </g>
    <g id="Group_56" data-name="Group 56" transform="translate(1360 942)" clip-path="url(#clip-path-16)">
      <path id="Path_37" data-name="Path 37" d="M80-82h22V-3H80Z" fill="#105167"/>
    </g>
  </g>
</svg>
