<svg id="Page-1" xmlns="http://www.w3.org/2000/svg" width="36" height="36" viewBox="0 0 36 36">
  <g id="Ana-sayfa-Görsel-1-Dikey">
    <g id="Group-9">
      <rect id="Rectangle" width="36" height="36" fill="#ebebeb"/>
      <path id="Shape" d="M7.967,16.638l3.556-1.772a.117.117,0,0,1,.105,0l3.556,1.772a.465.465,0,0,1,.253.414.455.455,0,0,1-.212.391.436.436,0,0,1-.437.023L11.839,16a.585.585,0,0,0-.527,0l-2.949,1.47a.435.435,0,0,1-.437-.023.455.455,0,0,1-.212-.391.465.465,0,0,1,.253-.414ZM15.91,6.816c.284.35.569.717.848,1.1,2.233,3.042,3.365,5.887,3.365,8.458A8.647,8.647,0,0,1,11.576,25.1a8.369,8.369,0,0,1-4.861-1.552.372.372,0,0,1-.091-.512.355.355,0,0,1,.5-.092,7.661,7.661,0,0,0,4.45,1.42A7.918,7.918,0,0,0,19.4,16.371c0-2.408-1.084-5.105-3.221-8.017a33.075,33.075,0,0,0-4.457-4.875.212.212,0,0,0-.286,0,35.964,35.964,0,0,0-4.46,4.986c-2.143,2.944-3.229,5.6-3.229,7.9a8.041,8.041,0,0,0,2.158,5.5.373.373,0,0,1-.013.52.355.355,0,0,1-.509-.013,8.781,8.781,0,0,1-2.356-6.009c0-2.462,1.134-5.268,3.371-8.342.3-.417.614-.819.923-1.2A20.708,20.708,0,0,1,2.4,5.741C.807,5.129,0,4.385,0,3.529,0,2.489,1.227,1.594,3.549.939A30.9,30.9,0,0,1,11.576,0a32.9,32.9,0,0,1,7.1.705.368.368,0,0,1,.273.439.36.36,0,0,1-.43.279A32.653,32.653,0,0,0,11.576.735a30.184,30.184,0,0,0-7.835.913C2.281,2.06.72,2.77.72,3.529c0,.235.188.854,1.933,1.524A21.215,21.215,0,0,0,7.885,6.146a37.708,37.708,0,0,1,3.07-3.211A.922.922,0,0,1,12.2,2.924a34.615,34.615,0,0,1,3.147,3.215,21,21,0,0,0,5.178-1.095c1.723-.667,1.909-1.282,1.909-1.515,0-.547-.868-1.169-2.323-1.665a.369.369,0,0,1-.228-.465.36.36,0,0,1,.456-.232c1.841.628,2.815,1.444,2.815,2.362,0,1.8-3.623,2.862-7.241,3.287Zm-4.334,2.3a7.256,7.256,0,0,1,0,14.508,7.256,7.256,0,0,1,0-14.508Zm0,13.773a6.52,6.52,0,0,0,0-13.038,6.52,6.52,0,0,0,0,13.038Z" transform="translate(30.011 30.473) rotate(180)" fill="#105268"/>
    </g>
  </g>
</svg>
