<svg xmlns="http://www.w3.org/2000/svg" width="36" height="36" viewBox="0 0 36 36">
  <g id="Page-1" transform="translate(-0.269)">
    <g id="Ana-sayfa-Görsel-1-Dikey" transform="translate(0 0)">
      <g id="Group-7">
        <rect id="Rectangle-Copy-10" width="36" height="36" transform="translate(0.269)" fill="#ebebeb"/>
        <path id="Path" d="M14.431,12.543h-.005a.449.449,0,0,0,0,.9h.005a.449.449,0,0,0,0-.9Z" transform="translate(-1.695 -2.008)" fill="#105268"/>
        <path id="Shape" d="M29.133,12.543h-13.6a.466.466,0,1,0,0,.932h13.6c.024,0,.048,0,.072,0l-1.31,1.3H21.778a.466.466,0,1,0,0,.932h5.179l-6.536,6.5a2.013,2.013,0,0,1-2.833,0L8.8,13.479c.024,0,.048,0,.072,0h2.485a.466.466,0,1,0,0-.932H8.876A1.872,1.872,0,0,0,7,14.408v12.4a1.872,1.872,0,0,0,1.876,1.865H29.133a1.872,1.872,0,0,0,1.876-1.865v-12.4A1.872,1.872,0,0,0,29.133,12.543ZM7.938,26.811v-12.4a.921.921,0,0,1,.085-.386L14.55,20.51,7.971,27.051A.923.923,0,0,1,7.938,26.811Zm21.2.932H8.876a.939.939,0,0,1-.242-.033l6.579-6.541,1.712,1.7a2.956,2.956,0,0,0,4.159,0l1.712-1.7,6.579,6.541A.939.939,0,0,1,29.133,27.743Zm.905-.692L23.459,20.51l6.527-6.489a.921.921,0,0,1,.085.386v12.4A.923.923,0,0,1,30.038,27.051Z" transform="translate(-0.998 -2.17)" fill="#105268"/>
      </g>
    </g>
  </g>
</svg>
