<svg xmlns="http://www.w3.org/2000/svg" width="36" height="36" viewBox="0 0 36 36">
  <g id="Page-1" transform="translate(0.461)">
    <g id="Ana-sayfa-Görsel-1-Dikey" transform="translate(0 0)">
      <g id="Group-6">
        <rect id="Rectangle-Copy-9" width="36" height="36" transform="translate(-0.461)" fill="#ebebeb"/>
        <g id="phone-call" transform="matrix(0.875, -0.485, 0.485, 0.875, 6.58, 10.724)">
          <path id="Path" d="M8.986,16.9a2,2,0,0,0-2.654-.217l-.018.014a.051.051,0,0,1-.042.011.041.041,0,0,1-.029-.021A11.43,11.43,0,0,1,4.77,8.648a.036.036,0,0,1,.017-.026.044.044,0,0,1,.038,0l.021.007A1.986,1.986,0,0,0,7.265,7.508L9.243,3.152a1.668,1.668,0,0,0-.324-1.839,4.186,4.186,0,0,0-.566-.5,4.064,4.064,0,0,0-5.735.856c-.084.115-.162.236-.237.358a10.587,10.587,0,0,0-.606,1.084L1.732,3.2A17.459,17.459,0,0,0,.271,7.124a18.889,18.889,0,0,0,.2,7.369,16.229,16.229,0,0,0,3.184,6.617c.389.481,1.094-.135.7-.617a15.22,15.22,0,0,1-2.985-6.208,17.867,17.867,0,0,1-.184-6.97A16.822,16.822,0,0,1,2.554,3.671L2.6,3.584c.176-.347.361-.681.564-1.011.064-.107.13-.206.2-.3a3.168,3.168,0,0,1,4.469-.663,3.189,3.189,0,0,1,.436.381L8.272,2A.656.656,0,0,1,8.4,2.72L6.424,7.077A1.092,1.092,0,0,1,5.1,7.7L5.08,7.692a.936.936,0,0,0-.778.092.982.982,0,0,0-.444.656,12.448,12.448,0,0,0,1.6,8.759,1,1,0,0,0,.651.465.942.942,0,0,0,.768-.182l.013-.01A1.1,1.1,0,0,1,8.35,17.6l3.13,3.133a1.278,1.278,0,0,1,.154,1.471,3.076,3.076,0,0,1-2.157,1.443,3.211,3.211,0,0,1-2.434-.593c-.494-.361-1.016.429-.521.791a4.154,4.154,0,0,0,2.409.815,4.068,4.068,0,0,0,.712-.055,3.977,3.977,0,0,0,2.8-1.91l.01-.019a2.29,2.29,0,0,0-.34-2.637Z" transform="translate(0 0)" fill="#105268"/>
          <path id="Path-2" data-name="Path" d="M0,.439A.451.451,0,0,0,.429.887.426.426,0,0,0,.847.467.452.452,0,0,0,.419,0,.427.427,0,0,0,0,.439Z" transform="translate(5.249 22.016)" fill="#105268"/>
        </g>
      </g>
    </g>
  </g>
</svg>
