<svg xmlns="http://www.w3.org/2000/svg" xmlns:xlink="http://www.w3.org/1999/xlink" width="118" height="118" viewBox="0 0 118 118">
  <defs>
    <clipPath id="clip-path">
      <path id="Path_14" data-name="Path 14" d="M95.756-81.224,83.311-93.748a1.948,1.948,0,0,0-2-.483,1.966,1.966,0,0,0-1.322,1.591,7.84,7.84,0,0,1-8.118,6.753,7.852,7.852,0,0,1-7.447-7.5,7.864,7.864,0,0,1,6.71-8.17,1.96,1.96,0,0,0,1.581-1.33,1.978,1.978,0,0,0-.48-2.017L59.786-117.423a1.948,1.948,0,0,0-2.767,0L46.213-106.551a11.745,11.745,0,0,0-12.361-8.721,11.778,11.778,0,0,0-10.676,10.742,11.81,11.81,0,0,0,8.662,12.443L21.042-81.224a1.978,1.978,0,0,0,0,2.784l10.8,10.882A11.8,11.8,0,0,0,23.171-56.9a11.821,11.821,0,0,0,7.248,11.682L25.85-31.958a9.9,9.9,0,0,0,.337,8.678L33.054-6.936a1.58,1.58,0,0,0,.088.183,6.042,6.042,0,0,1,.73,2.893v1.89A1.963,1.963,0,0,0,35.829,0a1.963,1.963,0,0,0,1.957-1.969V-3.86a10.019,10.019,0,0,0-1.174-4.695L29.742-24.9a1.777,1.777,0,0,0-.094-.2,6.013,6.013,0,0,1-.172-5.4l4.786-13.863c.205,0,.407.03.614.03A11.731,11.731,0,0,0,46.207-53.08l3.319,3.326v20.216a1.963,1.963,0,0,0,1.957,1.969,1.963,1.963,0,0,0,1.957-1.969V-57.107a5.889,5.889,0,0,1,5.87-5.908,5.889,5.889,0,0,1,5.87,5.908v23.849a17.915,17.915,0,0,0,1.859,7.926l.716,1.445a13.915,13.915,0,0,1,0,12.327L65.8-7.621a5.966,5.966,0,0,0-.618,2.643v3.009A1.963,1.963,0,0,0,67.135,0a1.963,1.963,0,0,0,1.957-1.969V-4.978a2.017,2.017,0,0,1,.2-.88L71.244-9.8a17.9,17.9,0,0,0,0-15.85l-.716-1.445a13.919,13.919,0,0,1-1.344-4.519,13.612,13.612,0,0,0,9.691,4.043,5.889,5.889,0,0,0,5.87-5.908V-44.7a11.788,11.788,0,0,0,8.911-11.347,11.792,11.792,0,0,0-8.7-11.513l10.8-10.882A1.978,1.978,0,0,0,95.756-81.224ZM78.875-31.507a9.827,9.827,0,0,1-9.783-9.846v-10.24l1.495-1.5a11.73,11.73,0,0,0,10.245,8.7v10.917A1.963,1.963,0,0,1,78.875-31.507Zm.28-35.774A1.979,1.979,0,0,0,78.782-65a1.954,1.954,0,0,0,2.041,1.065,7.815,7.815,0,0,1,8.1,4.281,7.914,7.914,0,0,1-1.468,9.088,7.79,7.79,0,0,1-9.03,1.478,7.889,7.889,0,0,1-4.254-8.151,1.972,1.972,0,0,0-1.058-2.054,1.947,1.947,0,0,0-2.268.376L69.092-57.15a9.857,9.857,0,0,0-4.91-8.516,9.729,9.729,0,0,0-9.783.022,9.858,9.858,0,0,0-4.873,8.538v1.784l-3.587-3.61a1.947,1.947,0,0,0-2.268-.376,1.972,1.972,0,0,0-1.058,2.054A7.889,7.889,0,0,1,38.359-49.1a7.79,7.79,0,0,1-9.03-1.478,7.914,7.914,0,0,1-1.468-9.088,7.815,7.815,0,0,1,8.1-4.281A1.953,1.953,0,0,0,38-65.014a1.979,1.979,0,0,0-.374-2.284L25.19-79.831,37.643-92.356a1.979,1.979,0,0,0,.374-2.283A1.954,1.954,0,0,0,35.976-95.7a7.815,7.815,0,0,1-8.085-4.282,7.914,7.914,0,0,1,1.456-9.077,7.985,7.985,0,0,1,11.067,0,7.908,7.908,0,0,1,2.207,6.672,1.973,1.973,0,0,0,1.058,2.054,1.948,1.948,0,0,0,2.268-.376l12.462-12.528,8.768,8.826A11.833,11.833,0,0,0,60.625-92,11.778,11.778,0,0,0,70.5-82.068,11.723,11.723,0,0,0,82.83-88.661l8.77,8.824Z" fill="none"/>
    </clipPath>
    <clipPath id="clip-path-2">
      <path id="Path_17" data-name="Path 17" d="M116.043-77.061H104.3a1.886,1.886,0,0,1-1.957-1.806,1.886,1.886,0,0,1,1.957-1.806h11.74A1.886,1.886,0,0,1,118-78.867,1.886,1.886,0,0,1,116.043-77.061Z" fill="none"/>
    </clipPath>
    <clipPath id="clip-path-3">
      <path id="Path_20" data-name="Path 20" d="M101.947-99.939a2,2,0,0,1-1.94-1.429,1.9,1.9,0,0,1,.936-2.168l10.443-5.783a2.055,2.055,0,0,1,2.732.712,1.886,1.886,0,0,1-.724,2.627L102.951-100.2a2.057,2.057,0,0,1-1,.258Z" fill="none"/>
    </clipPath>
    <clipPath id="clip-path-4">
      <path id="Path_23" data-name="Path 23" d="M112.382-48.163a2.053,2.053,0,0,1-1-.258L100.953-54.2a1.913,1.913,0,0,1-1.014-1.669,1.913,1.913,0,0,1,1.006-1.674,2.078,2.078,0,0,1,2.013.009l10.427,5.776a1.894,1.894,0,0,1,.934,2.166A1.993,1.993,0,0,1,112.382-48.163Z" fill="none"/>
    </clipPath>
    <clipPath id="clip-path-5">
      <path id="Path_26" data-name="Path 26" d="M13.7-77.061H1.957A1.886,1.886,0,0,1,0-78.867a1.886,1.886,0,0,1,1.957-1.806H13.7a1.886,1.886,0,0,1,1.957,1.806A1.886,1.886,0,0,1,13.7-77.061Z" fill="none"/>
    </clipPath>
    <clipPath id="clip-path-6">
      <path id="Path_29" data-name="Path 29" d="M16.053-99.939a2.057,2.057,0,0,1-1-.258L4.605-105.98a1.886,1.886,0,0,1-.724-2.627,2.055,2.055,0,0,1,2.732-.712l10.443,5.783a1.9,1.9,0,0,1,.936,2.168A2,2,0,0,1,16.053-99.939Z" fill="none"/>
    </clipPath>
    <clipPath id="clip-path-7">
      <path id="Path_32" data-name="Path 32" d="M5.618-48.163A1.993,1.993,0,0,1,3.681-49.59a1.894,1.894,0,0,1,.934-2.166l10.427-5.776a2.077,2.077,0,0,1,2.013-.009,1.913,1.913,0,0,1,1.006,1.674A1.913,1.913,0,0,1,17.047-54.2L6.62-48.421A2.053,2.053,0,0,1,5.618-48.163Z" fill="none"/>
    </clipPath>
  </defs>
  <g id="Group_53" data-name="Group 53" transform="translate(-862 -832)">
    <g id="Group_40" data-name="Group 40" transform="translate(862 950)" clip-path="url(#clip-path)">
      <path id="Path_13" data-name="Path 13" d="M19.278-119H97.517V1H19.278Z" fill="#105167"/>
    </g>
    <g id="Group_42" data-name="Group 42" transform="translate(862 950)" clip-path="url(#clip-path-2)">
      <path id="Path_16" data-name="Path 16" d="M101.347-81.673H119v5.612H101.347Z" fill="#105167"/>
    </g>
    <g id="Group_44" data-name="Group 44" transform="translate(862 950)" clip-path="url(#clip-path-3)">
      <path id="Path_19" data-name="Path 19" d="M98.772-110.843h16.9v11.9h-16.9Z" fill="#105167"/>
    </g>
    <g id="Group_46" data-name="Group 46" transform="translate(862 950)" clip-path="url(#clip-path-4)">
      <path id="Path_22" data-name="Path 22" d="M98.937-58.884h16.617v11.722H98.937Z" fill="#105167"/>
    </g>
    <g id="Group_48" data-name="Group 48" transform="translate(862 950)" clip-path="url(#clip-path-5)">
      <path id="Path_25" data-name="Path 25" d="M-1-81.673H16.653v5.612H-1Z" fill="#105167"/>
    </g>
    <g id="Group_50" data-name="Group 50" transform="translate(862 950)" clip-path="url(#clip-path-6)">
      <path id="Path_28" data-name="Path 28" d="M2.33-110.843h16.9v11.9H2.33Z" fill="#105167"/>
    </g>
    <g id="Group_52" data-name="Group 52" transform="translate(862 950)" clip-path="url(#clip-path-7)">
      <path id="Path_31" data-name="Path 31" d="M2.446-58.884H19.063v11.722H2.446Z" fill="#105167"/>
    </g>
  </g>
</svg>
